<?xml version="1.0" encoding="UTF-8" standalone="no"?>
<!-- Created with Inkscape (http://www.inkscape.org/) -->

<svg
   width="32"
   height="32"
   viewBox="0 0 8.4666667 8.4666667"
   version="1.1"
   id="svg5"
   inkscape:version="1.2.2 (b0a8486541, 2022-12-01)"
   sodipodi:docname="libreoffice-calc.svg"
   xmlns:inkscape="http://www.inkscape.org/namespaces/inkscape"
   xmlns:sodipodi="http://sodipodi.sourceforge.net/DTD/sodipodi-0.dtd"
   xmlns="http://www.w3.org/2000/svg"
   xmlns:svg="http://www.w3.org/2000/svg">
  <sodipodi:namedview
     id="namedview7"
     pagecolor="#ffffff"
     bordercolor="#9c9c9c"
     borderopacity="0.24705882"
     inkscape:showpageshadow="false"
     inkscape:pageopacity="0.0"
     inkscape:pagecheckerboard="0"
     inkscape:deskcolor="#5e5e5e"
     inkscape:document-units="px"
     showgrid="true"
     inkscape:zoom="5.1754899"
     inkscape:cx="90.619441"
     inkscape:cy="49.850353"
     inkscape:window-width="2560"
     inkscape:window-height="1363"
     inkscape:window-x="0"
     inkscape:window-y="0"
     inkscape:window-maximized="1"
     inkscape:current-layer="layer1">
    <inkscape:grid
       type="xygrid"
       id="grid132"
       originx="0"
       originy="0" />
  </sodipodi:namedview>
  <defs
     id="defs2" />
  <g
     inkscape:label="Capa 1"
     inkscape:groupmode="layer"
     id="layer1">
    <g
       id="g3281"
       transform="translate(-6.6146015,-2.6458336)">
      <path
         id="path2011"
         style="color:#000000;fill:#30a86d;fill-opacity:1;stroke-width:0.264583;stroke-linecap:round;stroke-linejoin:round;-inkscape-stroke:none"
         d="m 7.9375,2.9104169 c -0.2885811,0 -0.5291666,0.2405856 -0.5291666,0.5291667 V 10.31875 c 0,0.288581 0.2405855,0.529167 0.5291666,0.529167 h 5.820833 c 0.288582,0 0.529167,-0.240586 0.529167,-0.529167 V 6.3500002 c -1.4e-5,-0.070168 -0.0279,-0.1374563 -0.07752,-0.1870684 l -3.175,-3.1749999 c -0.04961,-0.04962 -0.116901,-0.077502 -0.187068,-0.077515 z m 3.96875,0 c -0.235647,9.26e-5 -0.353638,0.2849668 -0.187069,0.4516517 l 2.116667,2.1166666 c 0.166686,0.1665711 0.451559,0.04858 0.451652,-0.1870683 V 3.4395836 c 0,0 0.0036,-0.1213776 -0.06098,-0.2506319 C 14.16189,3.0597001 13.978817,2.9104169 13.758331,2.9104169 Z"
         sodipodi:nodetypes="ssssssccccscccccssc" />
      <path
         id="path2015"
         style="color:#000000;fill:#53d18a;fill-opacity:1;stroke-width:0.529167;stroke-linecap:round;stroke-linejoin:round;-inkscape-stroke:none"
         d="m 7.9375,3.1750002 c -0.1465782,0 -0.2645833,0.1180042 -0.2645833,0.2645834 V 10.31875 c 0,0.146579 0.1180051,0.264583 0.2645833,0.264583 h 5.820833 c 0.146578,0 0.264584,-0.118004 0.264584,-0.264583 V 6.3500002 l -3.175,-3.175 z m 3.96875,0 2.116667,2.1166667 V 3.4395836 c 0,0 -10e-7,-0.2645834 -0.264584,-0.2645834 z" />
      <g
         inkscape:label="Capa 1"
         id="layer1-2"
         transform="matrix(0.26458333,0,0,0.26458333,6.6145834,-71.874059)"
         style="fill:#d1f3e0;fill-opacity:1">
        <g
           id="g4421"
           transform="translate(15,-6.9998)"
           style="fill:#d1f3e0;fill-opacity:1" />
        <path
           inkscape:connector-curvature="0"
           style="opacity:0.98;fill:#d1f3e0;fill-opacity:1;stroke:none;stroke-width:2;stroke-linecap:square;stroke-linejoin:miter;stroke-miterlimit:4;stroke-dasharray:none;stroke-opacity:1;paint-order:stroke markers fill"
           d="m 8,289.64999 v 1 2 1 2 13 h 16 v -13 h -3 v -3 h -1 -2 v -3 z m 1,1 h 2 v 2 H 9 Z m 3,0 h 2 v 2 h -2 z m 3,0 h 2 v 2 h -2 z m -6,3 h 2 v 2 H 9 Z m 3,0 h 2 v 2 h -2 z m 3,0 h 2 v 2 h -2 z m 3,0 h 2 v 2 h -2 z m -9,3 h 2 v 2 H 9 Z m 3,0 h 2 v 2 h -2 z m 3,0 h 2 v 2 h -2 z m 3,0 h 2 v 2 h -2 z m 3,0 h 2 v 2 h -2 z m -12,3 h 2 v 2 H 9 Z m 3,0 h 2 v 2 h -2 z m 3,0 h 2 v 2 h -2 z m 3,0 h 2 v 2 h -2 z m 3,0 h 2 v 2 h -2 z m -12,3 h 2 v 2 H 9 Z m 3,0 h 2 v 2 h -2 z m 3,0 h 2 v 2 h -2 z m 3,0 h 2 v 2 h -2 z m 3,0 h 2 v 2 h -2 z m -12,3 h 2 v 2 H 9 Z m 3,0 h 2 v 2 h -2 z m 3,0 h 2 v 2 h -2 z m 3,0 h 2 v 2 h -2 z m 3,0 h 2 v 2 h -2 z"
           id="rect3294-3" />
      </g>
    </g>
  </g>
</svg>
