<?xml version="1.0" encoding="UTF-8" standalone="no"?>
<svg
   height="32"
   width="32"
   version="1.1"
   id="svg20"
   sodipodi:docname="hwinfo.svg"
   inkscape:version="1.3.2 (091e20ef0f, 2023-11-25)"
   xmlns:inkscape="http://www.inkscape.org/namespaces/inkscape"
   xmlns:sodipodi="http://sodipodi.sourceforge.net/DTD/sodipodi-0.dtd"
   xmlns:xlink="http://www.w3.org/1999/xlink"
   xmlns="http://www.w3.org/2000/svg"
   xmlns:svg="http://www.w3.org/2000/svg">
  <defs
     id="defs20" />
  <sodipodi:namedview
     id="namedview20"
     pagecolor="#ffffff"
     bordercolor="#999999"
     borderopacity="1"
     inkscape:showpageshadow="2"
     inkscape:pageopacity="0"
     inkscape:pagecheckerboard="0"
     inkscape:deskcolor="#d1d1d1"
     showgrid="true"
     inkscape:zoom="23.96875"
     inkscape:cx="15.97914"
     inkscape:cy="16"
     inkscape:window-width="1920"
     inkscape:window-height="999"
     inkscape:window-x="0"
     inkscape:window-y="0"
     inkscape:window-maximized="1"
     inkscape:current-layer="svg20">
    <inkscape:grid
       id="grid20"
       units="px"
       originx="0"
       originy="0"
       spacingx="1"
       spacingy="1"
       empcolor="#0099e5"
       empopacity="0.30196078"
       color="#0099e5"
       opacity="0.14901961"
       empspacing="5"
       dotted="false"
       gridanglex="30"
       gridanglez="30"
       visible="true" />
  </sodipodi:namedview>
  <linearGradient
     id="e"
     gradientUnits="userSpaceOnUse"
     x1="392.571"
     x2="406.571"
     xlink:href="#a"
     y1="539.798"
     y2="553.798" />
  <linearGradient
     id="h"
     gradientUnits="userSpaceOnUse"
     x1="391.571"
     x2="397.571"
     xlink:href="#b"
     y1="537.798"
     y2="543.798" />
  <linearGradient
     id="d"
     gradientUnits="userSpaceOnUse"
     x1="378.571"
     x2="378.57101"
     y1="553.798"
     y2="528.79797">
    <stop
       offset="0"
       stop-color="#63984b"
       id="stop1" />
    <stop
       offset="1"
       stop-color="#8fc278"
       id="stop2" />
  </linearGradient>
  <linearGradient
     id="f"
     gradientUnits="userSpaceOnUse"
     x1="402.571"
     x2="402.571"
     y1="549.798"
     y2="529.798">
    <stop
       offset="0"
       stop-color="#197cf1"
       id="stop3" />
    <stop
       offset="1"
       stop-color="#20bcfa"
       id="stop4" />
  </linearGradient>
  <linearGradient
     id="a"
     gradientUnits="userSpaceOnUse"
     x1="402.571"
     x2="406.571"
     xlink:href="#b"
     y1="529.798"
     y2="533.798">
    <stop
       offset="0"
       id="stop5" />
    <stop
       offset="1"
       stop-opacity="0"
       id="stop6" />
  </linearGradient>
  <linearGradient
     id="c"
     gradientUnits="userSpaceOnUse"
     x1="-50"
     x2="-22.15">
    <stop
       offset="0"
       stop-color="#7cbaf8"
       id="stop7" />
    <stop
       offset="1"
       stop-color="#f4fcff"
       id="stop8" />
  </linearGradient>
  <linearGradient
     id="g"
     gradientUnits="userSpaceOnUse"
     x1="18"
     x2="18"
     xlink:href="#c"
     y1="24"
     y2="8" />
  <linearGradient
     id="i"
     gradientUnits="userSpaceOnUse"
     x1="399.571"
     x2="399.571"
     xlink:href="#c"
     y1="547.798"
     y2="531.798" />
  <linearGradient
     id="j"
     gradientUnits="userSpaceOnUse"
     x1="398.571"
     x2="398.571"
     xlink:href="#c"
     y1="547.798"
     y2="531.798" />
  <linearGradient
     id="b"
     gradientUnits="userSpaceOnUse"
     x1="802.643"
     x2="816.643"
     y1="36.236"
     y2="50.236">
    <stop
       offset="0"
       stop-color="#292c2f"
       id="stop9" />
    <stop
       offset="1"
       stop-opacity="0"
       id="stop10" />
  </linearGradient>
  <path
     d="m 378.571,530.798 v -3.03911 c 0,-1.07366 1,-1.96089 1.96349,-1.96089 h 23.98957 c 1.04694,0 2.04694,1 2.04694,2.04433 V 553.798 h -28 v -20 l 2,-1 z"
     fill="url(#d)"
     transform="translate(-376.571,-523.798)"
     id="path10"
     style="fill:url(#d)"
     sodipodi:nodetypes="cccccccccc" />
  <path
     d="M29 27l-2 2h2z"
     fill="#e6ea97"
     fill-rule="evenodd"
     id="path11" />
  <path
     d="M382.571 549.798l4 4h20v-20l-4-4z"
     fill="url(#e)"
     opacity=".2"
     transform="translate(-376.571 -523.798)"
     id="path12" />
  <path
     d="M382.571 529.798h20v20h-20z"
     fill="url(#f)"
     transform="translate(-376.571 -523.798)"
     id="path13" />
  <path
     d="M6 27h1v1H6zm1 1h1v1H7zm1-1h1v1H8zm1 1h1v1H9zm1-1h1v1h-1zm1 1h1v1h-1zm1-1h1v1h-1zm13 0h1v1h-1zm-1 1h1v1h-1zm-1-1h1v1h-1zm-1 1h1v1h-1zm-5 0h1v1h-1zm-1-1h1v1h-1zm-1 1h1v1h-1zm-1-1h1v1h-1zm-1 1h1v1h-1zM28 7h1v1h-1zm-1 1h1v1h-1zm1 1h1v1h-1zm-1 1h1v1h-1zm1 1h1v1h-1zm-1 1h1v1h-1zm1 1h1v1h-1zm-1 3h1v1h-1zm1-1h1v1h-1zm-1-1h1v1h-1z"
     id="path14" />
  <path
     d="M6 25h20v1H6z"
     fill="#1c5593"
     fill-rule="evenodd"
     id="path15" />
  <path
     d="M16 8a8 8 0 0 0-8 8 8 8 0 0 0 8 8 8 8 0 0 0 8-8 8 8 0 0 0-8-8zm0 1a7.09 7.09 0 0 1 4.95 2.05C22.244 12.348 23 14.168 23 16s-.755 3.653-2.05 4.95S17.832 23 16 23s-3.653-.755-4.95-2.05C9.756 19.652 9 17.832 9 16s.755-3.653 2.05-4.95A7.084 7.084 0 0 1 16 9z"
     fill="url(#g)"
     id="path16" />
  <path
     d="M393.571 534.798l9 9v5h-7l-4-4v-6l1-1-1-1z"
     fill="url(#h)"
     opacity=".2"
     transform="translate(-376.571 -523.798)"
     id="path17" />
  <path
     d="M391.571 534.798h2v2h-2z"
     fill="url(#i)"
     transform="translate(-376.571 -523.798)"
     id="path18" />
  <path
     d="M391.571 537.798h2v7h-2z"
     fill="url(#j)"
     transform="translate(-376.571 -523.798)"
     id="path19" />
  <path
     d="M2 29h28v1H2z"
     fill="#4a7937"
     id="path20" />
</svg>
