<?xml version="1.0" encoding="UTF-8" standalone="no"?>
<svg
   viewBox="0 0 64 64"
   version="1.1"
   id="svg12"
   sodipodi:docname="folder-projects.svg"
   inkscape:version="1.3.2 (091e20ef0f, 2023-11-25)"
   xmlns:inkscape="http://www.inkscape.org/namespaces/inkscape"
   xmlns:sodipodi="http://sodipodi.sourceforge.net/DTD/sodipodi-0.dtd"
   xmlns:xlink="http://www.w3.org/1999/xlink"
   xmlns="http://www.w3.org/2000/svg"
   xmlns:svg="http://www.w3.org/2000/svg"
   xmlns:rdf="http://www.w3.org/1999/02/22-rdf-syntax-ns#"
   xmlns:cc="http://creativecommons.org/ns#"
   xmlns:dc="http://purl.org/dc/elements/1.1/">
  <metadata
     id="metadata16">
    <rdf:RDF>
      <cc:Work
         rdf:about="">
        <dc:format>image/svg+xml</dc:format>
        <dc:type
           rdf:resource="http://purl.org/dc/dcmitype/StillImage" />
      </cc:Work>
    </rdf:RDF>
  </metadata>
  <sodipodi:namedview
     pagecolor="#ffffff"
     bordercolor="#666666"
     borderopacity="1"
     objecttolerance="10"
     gridtolerance="10"
     guidetolerance="10"
     inkscape:pageopacity="0"
     inkscape:pageshadow="2"
     inkscape:window-width="1920"
     inkscape:window-height="996"
     id="namedview14"
     showgrid="false"
     inkscape:zoom="3.6875"
     inkscape:cx="32"
     inkscape:cy="97.084746"
     inkscape:window-x="0"
     inkscape:window-y="0"
     inkscape:window-maximized="1"
     inkscape:current-layer="svg12"
     inkscape:showpageshadow="2"
     inkscape:pagecheckerboard="0"
     inkscape:deskcolor="#d1d1d1" />
  <defs
     id="defs3051">
    <linearGradient
       inkscape:collect="always"
       id="linearGradient835">
      <stop
         style="stop-color:#00a489;stop-opacity:1"
         offset="0"
         id="stop831" />
      <stop
         style="stop-color:#006453;stop-opacity:1"
         offset="1"
         id="stop833" />
    </linearGradient>
    <linearGradient
       inkscape:collect="always"
       id="linearGradient827">
      <stop
         style="stop-color:#004c5a;stop-opacity:1"
         offset="0"
         id="stop823" />
      <stop
         style="stop-color:#00a5be;stop-opacity:1"
         offset="1"
         id="stop825" />
    </linearGradient>
    <style
       type="text/css"
       id="current-color-scheme">
      .ColorScheme-Text {
        color:#31363b;
      }
      .ColorScheme-Background {
        color:#eff0f1;
      }
      .ColorScheme-Highlight {
        color:#3daee9;
      }
      .ColorScheme-ViewText {
        color:#31363b;
      }
      .ColorScheme-ViewBackground {
        color:#fcfcfc;
      }
      .ColorScheme-ViewHover {
        color:#93cee9;
      }
      .ColorScheme-ViewFocus{
        color:#3daee9;
      }
      .ColorScheme-ButtonText {
        color:#31363b;
      }
      .ColorScheme-ButtonBackground {
        color:#eff0f1;
      }
      .ColorScheme-ButtonHover {
        color:#93cee9;
      }
      .ColorScheme-ButtonFocus{
        color:#3daee9;
      }
      </style>
    <linearGradient
       inkscape:collect="always"
       xlink:href="#linearGradient827"
       id="linearGradient829"
       x1="23"
       y1="21"
       x2="48.525425"
       y2="69.694916"
       gradientUnits="userSpaceOnUse" />
    <linearGradient
       inkscape:collect="always"
       xlink:href="#linearGradient835"
       id="linearGradient837"
       x1="4"
       y1="13"
       x2="60"
       y2="13"
       gradientUnits="userSpaceOnUse" />
  </defs>
  <path
     style="fill:url(#linearGradient829);fill-opacity:1;stroke:none"
     d="M 4 6 L 4 11 L 4 20 L 3 20 L 3 21 L 3.0019531 21 C 3.0019031 21.004 3 21.008019 3 21.011719 L 3 57 L 3 58 L 4 58 L 60 58 L 61 58 L 61 57 L 61 21.011719 L 61 21 L 61 16 L 60 16 L 60 11.009766 C 60 11.006766 59.998047 11.004 59.998047 11 L 60 11 L 60 10 L 32 10 L 28 6 L 4 6 z "
     class="ColorScheme-Highlight"
     id="path4" />
  <path
     style="fill-opacity:1;fill-rule:evenodd;fill:url(#linearGradient837)"
     d="M 4 6 L 4 11 L 4 20 L 22 20 L 26 16 L 60 16 L 60 11.009766 C 60 11.006766 59.998047 11.004 59.998047 11 L 60 11 L 60 10 L 32 10 L 28 6 L 4 6 z "
     id="path6" />
  <path
     style="fill:#ffffff;fill-opacity:0.2;fill-rule:evenodd"
     d="M 28 6 L 31 11 L 33 11 L 60 11 L 60 10 L 33 10 L 32 10 L 28 6 z M 26 16 L 22 20 L 3 20 L 3 21 L 23 21 L 26 16 z "
     id="path8" />
  <path
     style="fill-opacity:0.2;fill-rule:evenodd"
     d="M 26 16 L 20 19 L 4 19 L 4 20 L 22 20 L 26 16 z M 3 57 L 3 58 L 4 58 L 60 58 L 61 58 L 61 57 L 60 57 L 4 57 L 3 57 z "
     class="ColorScheme-Text"
     id="path10" />
  <path
     d="m 38.798292,40.109903 c -0.13647,-0.427552 -0.345247,-0.828631 -0.625672,-1.203236 -0.280962,-0.374189 -0.629818,-0.706546 -1.046922,-0.996931 -0.417345,-0.290118 -0.906567,-0.519232 -1.467965,-0.687527 -0.224999,-0.06079 -0.620761,-0.156528 -1.14205,-0.286494 -0.372587,-0.09256 -0.721883,-0.187519 -1.115635,-0.284244 v -4.719896 c 0.393737,0.107075 0.667289,0.276853 0.959283,0.465649 0.624702,0.403573 1.016393,1.093983 1.131147,2.031512 h 3.026365 c -0.0284,-0.803589 -0.203434,-1.46254 -0.524818,-2.054506 -0.353084,-0.649264 -0.830241,-1.206447 -1.43194,-1.649857 -0.601563,-0.442957 -1.322357,-0.780818 -2.116501,-1.002493 -0.344918,-0.09611 -0.649742,-0.176974 -1.043477,-0.231403 V 28 h -2.800011 v 1.480698 c -0.306286,0.04658 -0.662722,0.109153 -0.981142,0.189744 -0.75435,0.19121 -1.416972,0.485195 -2.01036,0.882347 -0.593743,0.397531 -1.065433,0.897877 -1.426446,1.501241 -0.361097,0.603709 -0.538626,1.317888 -0.538626,2.142905 0,0.427901 0.0614,0.847913 0.181702,1.260515 0.120301,0.412572 0.325545,0.802125 0.614366,1.16883 0.288871,0.366721 0.67789,0.699046 1.167548,0.996991 0.489255,0.297888 1.080839,0.538584 1.818943,0.721943 0.406294,0.104629 0.823817,0.202421 1.17382,0.293557 V 43.97755 C 30.118725,43.84723 29.642338,43.64724 29.257802,43.37578 28.856629,43.09332 28.554913,42.75287 28.330399,42.30951 28.121451,41.89749 28.020817,41.39315 28.006327,40.857426 H 25 c 0.03002,0.937514 0.229692,1.763164 0.598156,2.471964 0.38493,0.74129 0.898325,1.33755 1.540157,1.81085 0.641492,0.47381 1.373471,0.81949 2.239946,1.04874 0.388597,0.10281 0.827995,0.17676 1.221754,0.23349 v 1.57799 h 2.800019 v -1.54199 c 0.437506,-0.0478 0.829377,-0.12009 1.248074,-0.21783 0.818157,-0.19075 1.559462,-0.49268 2.201326,-0.9052 0.641466,-0.41252 1.164661,-0.94324 1.557975,-1.59293 C 38.800272,43.09333 39,42.31011 39,41.39338 c 5.2e-5,-0.427604 -0.06567,-0.855548 -0.201777,-1.283462 z m -8.198196,-4.176748 c -0.525014,-0.16711 -1.046159,-0.405733 -1.402218,-0.716444 -0.377161,-0.328334 -0.554479,-0.782793 -0.554479,-1.363651 0,-0.412573 0.105729,-0.756277 0.306438,-1.031364 0.200436,-0.275032 0.433663,-0.492782 0.738497,-0.653187 0.270399,-0.142374 0.605504,-0.248447 0.911759,-0.318662 z m 5.201965,6.686405 c -0.12857,0.29792 -0.33681,0.56143 -0.625752,0.7907 -0.28884,0.22916 -0.688792,0.41643 -1.153996,0.56147 -0.196882,0.0615 -0.359787,0.10908 -0.622265,0.14446 v -4.781795 c 0.437498,0.117107 0.795379,0.238036 1.151778,0.362983 0.352694,0.122491 0.688978,0.332269 0.985988,0.630174 0.296864,0.298006 0.451017,0.760288 0.451017,1.386638 6.1e-5,0.30578 -0.05855,0.60738 -0.186766,0.90534 z"
     id="path25907-1-5-7"
     style="fill:#d3ecf3;fill-opacity:1;stroke-width:0.044643" />
</svg>
