<?xml version="1.0" encoding="UTF-8" standalone="no"?>
<svg
   viewBox="0 0 64 64"
   version="1.1"
   id="svg12"
   sodipodi:docname="folder-godot.svg"
   inkscape:version="1.3 (0e150ed6c4, 2023-07-21)"
   xmlns:inkscape="http://www.inkscape.org/namespaces/inkscape"
   xmlns:sodipodi="http://sodipodi.sourceforge.net/DTD/sodipodi-0.dtd"
   xmlns:xlink="http://www.w3.org/1999/xlink"
   xmlns="http://www.w3.org/2000/svg"
   xmlns:svg="http://www.w3.org/2000/svg"
   xmlns:rdf="http://www.w3.org/1999/02/22-rdf-syntax-ns#"
   xmlns:cc="http://creativecommons.org/ns#"
   xmlns:dc="http://purl.org/dc/elements/1.1/">
  <metadata
     id="metadata16">
    <rdf:RDF>
      <cc:Work
         rdf:about="">
        <dc:format>image/svg+xml</dc:format>
        <dc:type
           rdf:resource="http://purl.org/dc/dcmitype/StillImage" />
      </cc:Work>
    </rdf:RDF>
  </metadata>
  <sodipodi:namedview
     pagecolor="#ffffff"
     bordercolor="#666666"
     borderopacity="1"
     objecttolerance="10"
     gridtolerance="10"
     guidetolerance="10"
     inkscape:pageopacity="0"
     inkscape:pageshadow="2"
     inkscape:window-width="1920"
     inkscape:window-height="994"
     id="namedview14"
     showgrid="false"
     inkscape:zoom="3.6875"
     inkscape:cx="32"
     inkscape:cy="32.135593"
     inkscape:window-x="0"
     inkscape:window-y="0"
     inkscape:window-maximized="1"
     inkscape:current-layer="svg12"
     inkscape:showpageshadow="2"
     inkscape:pagecheckerboard="0"
     inkscape:deskcolor="#d1d1d1" />
  <defs
     id="defs3051">
    <linearGradient
       inkscape:collect="always"
       id="linearGradient835">
      <stop
         style="stop-color:#00a489;stop-opacity:1"
         offset="0"
         id="stop831" />
      <stop
         style="stop-color:#006453;stop-opacity:1"
         offset="1"
         id="stop833" />
    </linearGradient>
    <linearGradient
       inkscape:collect="always"
       id="linearGradient827">
      <stop
         style="stop-color:#004c5a;stop-opacity:1"
         offset="0"
         id="stop823" />
      <stop
         style="stop-color:#00a5be;stop-opacity:1"
         offset="1"
         id="stop825" />
    </linearGradient>
    <style
       type="text/css"
       id="current-color-scheme">&#10;      .ColorScheme-Text {&#10;        color:#31363b;&#10;      }&#10;      .ColorScheme-Background {&#10;        color:#eff0f1;&#10;      }&#10;      .ColorScheme-Highlight {&#10;        color:#3daee9;&#10;      }&#10;      .ColorScheme-ViewText {&#10;        color:#31363b;&#10;      }&#10;      .ColorScheme-ViewBackground {&#10;        color:#fcfcfc;&#10;      }&#10;      .ColorScheme-ViewHover {&#10;        color:#93cee9;&#10;      }&#10;      .ColorScheme-ViewFocus{&#10;        color:#3daee9;&#10;      }&#10;      .ColorScheme-ButtonText {&#10;        color:#31363b;&#10;      }&#10;      .ColorScheme-ButtonBackground {&#10;        color:#eff0f1;&#10;      }&#10;      .ColorScheme-ButtonHover {&#10;        color:#93cee9;&#10;      }&#10;      .ColorScheme-ButtonFocus{&#10;        color:#3daee9;&#10;      }&#10;      </style>
    <linearGradient
       inkscape:collect="always"
       xlink:href="#linearGradient827"
       id="linearGradient829"
       x1="23"
       y1="21"
       x2="48.525425"
       y2="69.694916"
       gradientUnits="userSpaceOnUse" />
    <linearGradient
       inkscape:collect="always"
       xlink:href="#linearGradient835"
       id="linearGradient837"
       x1="4"
       y1="13"
       x2="60"
       y2="13"
       gradientUnits="userSpaceOnUse" />
  </defs>
  <path
     style="fill:url(#linearGradient829);fill-opacity:1;stroke:none"
     d="M 4 6 L 4 11 L 4 20 L 3 20 L 3 21 L 3.0019531 21 C 3.0019031 21.004 3 21.008019 3 21.011719 L 3 57 L 3 58 L 4 58 L 60 58 L 61 58 L 61 57 L 61 21.011719 L 61 21 L 61 16 L 60 16 L 60 11.009766 C 60 11.006766 59.998047 11.004 59.998047 11 L 60 11 L 60 10 L 32 10 L 28 6 L 4 6 z "
     class="ColorScheme-Highlight"
     id="path4" />
  <path
     style="fill-opacity:1;fill-rule:evenodd;fill:url(#linearGradient837)"
     d="M 4 6 L 4 11 L 4 20 L 22 20 L 26 16 L 60 16 L 60 11.009766 C 60 11.006766 59.998047 11.004 59.998047 11 L 60 11 L 60 10 L 32 10 L 28 6 L 4 6 z "
     id="path6" />
  <path
     style="fill:#ffffff;fill-opacity:0.2;fill-rule:evenodd"
     d="M 28 6 L 31 11 L 33 11 L 60 11 L 60 10 L 33 10 L 32 10 L 28 6 z M 26 16 L 22 20 L 3 20 L 3 21 L 23 21 L 26 16 z "
     id="path8" />
  <path
     style="fill-opacity:0.2;fill-rule:evenodd"
     d="M 26 16 L 20 19 L 4 19 L 4 20 L 22 20 L 26 16 z M 3 57 L 3 58 L 4 58 L 60 58 L 61 58 L 61 57 L 60 57 L 4 57 L 3 57 z "
     class="ColorScheme-Text"
     id="path10" />
  <path
     style="color:#232629;fill:#ffffff;stroke-width:1.75824;fill-opacity:1"
     d="m 29.843408,27 c -0.96896,0.215409 -1.92758,0.512651 -2.82623,0.964972 0.0206,0.793514 0.0711,1.556002 0.17514,2.328297 -0.34899,0.223593 -0.71456,0.414766 -1.04052,0.67651 -0.33121,0.254801 -0.671949,0.49871 -0.97184,0.796704 -0.59914,-0.39628 -1.23204,-0.770174 -1.88531,-1.098901 -0.704169,0.757833 -1.36118,1.577833 -1.899037,2.493132 0.422699,0.663515 0.874764,1.330887 1.294643,1.850962 v 4.51923 0.57349 0.521978 c 0.0102,9.1e-5 0.02073,0.0025 0.03091,0.0035 l 3.444364,0.333104 c 0.1804,0.01741 0.32055,0.162638 0.33311,0.343408 l 0.10646,1.517856 3.004811,0.216347 0.20604,-1.404533 c 0.0268,-0.181918 0.18344,-0.315935 0.36745,-0.315935 h 3.63324 c 0.18391,0 0.34061,0.134013 0.36744,0.315935 l 0.20605,1.404533 3.0048,-0.216347 0.10647,-1.517856 c 0.0127,-0.180777 0.1527,-0.325901 0.3331,-0.343408 l 3.44436,-0.333104 c 0.0102,-9.51e-4 0.0206,-0.0033 0.0309,-0.0035 v -0.446429 -5.168269 c 0.48494,-0.610498 0.94281,-1.284392 1.29463,-1.850962 -0.53766,-0.915299 -1.19486,-1.735299 -1.89903,-2.493132 -0.65308,0.328727 -1.28617,0.702621 -1.88531,1.098901 -0.2998,-0.297994 -0.64016,-0.541903 -0.97184,-0.796704 -0.32587,-0.261744 -0.69219,-0.452917 -1.04052,-0.67651 0.1037,-0.772295 0.1545,-1.534783 0.17514,-2.328297 -0.89875,-0.45232 -1.8568,-0.749563 -2.82624,-0.964972 -0.38705,0.650509 -0.73912,1.354607 -1.04739,2.043269 -0.36555,-0.06108 -0.7346,-0.08491 -1.10233,-0.08928 -0.003,0 -0.005,0 -0.007,0 -0.002,0 -0.005,0 -0.007,0 -0.36841,0.0044 -0.73669,0.0282 -1.10234,0.08928 -0.30801,-0.688662 -0.6597,-1.39276 -1.04733,-2.043269 z m -2.72664,8.21772 c 1.14631,0 2.07761,0.928244 2.07761,2.074176 0,1.146692 -0.931299,2.074175 -2.077609,2.074175 -1.14574,0 -2.07418,-0.927483 -2.07418,-2.074175 0,-1.145932 0.92844,-2.074176 2.074179,-2.074176 z m 9.76648,0 c 1.14565,0 2.07418,0.928244 2.07418,2.074176 0,1.146692 -0.92853,2.074175 -2.07418,2.074175 -1.1465,0 -2.07761,-0.927483 -2.07761,-2.074175 0,-1.145932 0.93111,-2.074176 2.07761,-2.074176 z m -14.199862,6.153846 c 0.0014,0.332817 0.0069,0.696634 0.0069,0.76923 0,3.270529 4.148292,4.841126 9.302882,4.859204 h 0.007 0.007 c 5.1546,-0.01808 9.30289,-1.588675 9.30289,-4.859204 0,-0.07393 0.002,-0.436221 0.004,-0.76923 l -3.0941,0.298764 -0.10646,1.52816 c -0.0128,0.1842 -0.15921,0.33018 -0.3434,0.343405 l -3.66759,0.26099 c -0.009,6.65e-4 -0.0186,0 -0.0275,0 -0.18229,0 -0.34051,-0.13287 -0.36744,-0.315935 l -0.20968,-1.425137 h -2.994501 l -0.20948,1.425137 c -0.0283,0.192004 -0.20158,0.330112 -0.394919,0.315935 l -3.66753,-0.26099 c -0.184201,-0.01319 -0.330561,-0.159208 -0.343411,-0.343405 l -0.10646,-1.52816 z"
     id="path1" />
</svg>
