<?xml version="1.0" encoding="UTF-8" standalone="no"?>
<svg
   viewBox="0 0 64 64"
   version="1.1"
   id="svg12"
   sodipodi:docname="folder-inkscape.svg"
   inkscape:version="1.3.2 (091e20ef0f, 2023-11-25)"
   xmlns:inkscape="http://www.inkscape.org/namespaces/inkscape"
   xmlns:sodipodi="http://sodipodi.sourceforge.net/DTD/sodipodi-0.dtd"
   xmlns:xlink="http://www.w3.org/1999/xlink"
   xmlns="http://www.w3.org/2000/svg"
   xmlns:svg="http://www.w3.org/2000/svg"
   xmlns:rdf="http://www.w3.org/1999/02/22-rdf-syntax-ns#"
   xmlns:cc="http://creativecommons.org/ns#"
   xmlns:dc="http://purl.org/dc/elements/1.1/">
  <metadata
     id="metadata16">
    <rdf:RDF>
      <cc:Work
         rdf:about="">
        <dc:format>image/svg+xml</dc:format>
        <dc:type
           rdf:resource="http://purl.org/dc/dcmitype/StillImage" />
      </cc:Work>
    </rdf:RDF>
  </metadata>
  <sodipodi:namedview
     pagecolor="#ffffff"
     bordercolor="#666666"
     borderopacity="1"
     objecttolerance="10"
     gridtolerance="10"
     guidetolerance="10"
     inkscape:pageopacity="0"
     inkscape:pageshadow="2"
     inkscape:window-width="1920"
     inkscape:window-height="1003"
     id="namedview14"
     showgrid="false"
     inkscape:zoom="3.6875"
     inkscape:cx="32"
     inkscape:cy="32.135593"
     inkscape:window-x="0"
     inkscape:window-y="0"
     inkscape:window-maximized="1"
     inkscape:current-layer="svg12"
     inkscape:showpageshadow="2"
     inkscape:pagecheckerboard="0"
     inkscape:deskcolor="#d1d1d1" />
  <defs
     id="defs3051">
    <linearGradient
       inkscape:collect="always"
       id="linearGradient835">
      <stop
         style="stop-color:#00a489;stop-opacity:1"
         offset="0"
         id="stop831" />
      <stop
         style="stop-color:#006453;stop-opacity:1"
         offset="1"
         id="stop833" />
    </linearGradient>
    <linearGradient
       inkscape:collect="always"
       id="linearGradient827">
      <stop
         style="stop-color:#004c5a;stop-opacity:1"
         offset="0"
         id="stop823" />
      <stop
         style="stop-color:#00a5be;stop-opacity:1"
         offset="1"
         id="stop825" />
    </linearGradient>
    <style
       type="text/css"
       id="current-color-scheme">
      .ColorScheme-Text {
        color:#31363b;
      }
      .ColorScheme-Background {
        color:#eff0f1;
      }
      .ColorScheme-Highlight {
        color:#3daee9;
      }
      .ColorScheme-ViewText {
        color:#31363b;
      }
      .ColorScheme-ViewBackground {
        color:#fcfcfc;
      }
      .ColorScheme-ViewHover {
        color:#93cee9;
      }
      .ColorScheme-ViewFocus{
        color:#3daee9;
      }
      .ColorScheme-ButtonText {
        color:#31363b;
      }
      .ColorScheme-ButtonBackground {
        color:#eff0f1;
      }
      .ColorScheme-ButtonHover {
        color:#93cee9;
      }
      .ColorScheme-ButtonFocus{
        color:#3daee9;
      }
      </style>
    <linearGradient
       inkscape:collect="always"
       xlink:href="#linearGradient827"
       id="linearGradient829"
       x1="23"
       y1="21"
       x2="48.525425"
       y2="69.694916"
       gradientUnits="userSpaceOnUse" />
    <linearGradient
       inkscape:collect="always"
       xlink:href="#linearGradient835"
       id="linearGradient837"
       x1="4"
       y1="13"
       x2="60"
       y2="13"
       gradientUnits="userSpaceOnUse" />
  </defs>
  <path
     style="fill:url(#linearGradient829);fill-opacity:1;stroke:none"
     d="M 4 6 L 4 11 L 4 20 L 3 20 L 3 21 L 3.0019531 21 C 3.0019031 21.004 3 21.008019 3 21.011719 L 3 57 L 3 58 L 4 58 L 60 58 L 61 58 L 61 57 L 61 21.011719 L 61 21 L 61 16 L 60 16 L 60 11.009766 C 60 11.006766 59.998047 11.004 59.998047 11 L 60 11 L 60 10 L 32 10 L 28 6 L 4 6 z "
     class="ColorScheme-Highlight"
     id="path4" />
  <path
     style="fill-opacity:1;fill-rule:evenodd;fill:url(#linearGradient837)"
     d="M 4 6 L 4 11 L 4 20 L 22 20 L 26 16 L 60 16 L 60 11.009766 C 60 11.006766 59.998047 11.004 59.998047 11 L 60 11 L 60 10 L 32 10 L 28 6 L 4 6 z "
     id="path6" />
  <path
     style="fill:#ffffff;fill-opacity:0.2;fill-rule:evenodd"
     d="M 28 6 L 31 11 L 33 11 L 60 11 L 60 10 L 33 10 L 32 10 L 28 6 z M 26 16 L 22 20 L 3 20 L 3 21 L 23 21 L 26 16 z "
     id="path8" />
  <path
     style="fill-opacity:0.2;fill-rule:evenodd"
     d="M 26 16 L 20 19 L 4 19 L 4 20 L 22 20 L 26 16 z M 3 57 L 3 58 L 4 58 L 60 58 L 61 58 L 61 57 L 60 57 L 4 57 L 3 57 z "
     class="ColorScheme-Text"
     id="path10" />
  <path
     id="path18-3-9-7"
     d="m 31.832034,27.000005 c -0.618421,-0.0012 -1.233301,0.226594 -1.677113,0.687012 l -7.382582,7.655974 c -2.494977,3.13075 1.697943,2.767319 3.495325,3.669024 0.644855,0.667766 -2.470854,1.158248 -1.826054,1.826575 0.644759,0.667885 3.895734,1.285874 4.541465,1.953674 0.644742,0.667855 -1.318731,1.377169 -0.673993,2.044914 0.644758,0.66781 2.134587,0.03449 2.413856,1.576409 0.198946,1.10172 2.689947,0.4734 3.906716,-0.428826 0.644782,-0.668347 -1.232569,-0.602886 -0.587839,-1.270629 1.603262,-1.661534 3.095759,-0.606601 3.644328,-2.271384 0.270934,-0.822636 -2.362159,-1.265977 -1.716368,-1.933777 1.855209,-1.097982 8.266058,-1.81323 5.223433,-4.896037 L 33.5404,27.687017 c -0.468016,-0.455378 -1.090057,-0.685778 -1.708608,-0.687 z m 0.06279,0.726657 c 0.441568,0.0018 0.882184,0.171064 1.199114,0.496337 l 2.923251,3.005994 c 0.277033,0.286747 0.272598,0.840668 0.117689,1.000524 l -1.449923,-1.175306 -0.286045,1.743122 -1.21085,-0.647194 -1.943559,1.238853 -0.64267,-2.616675 -1.04235,1.826594 h -1.590968 c -0.649658,0 -0.7275,-0.835324 -0.13716,-1.4335 1.031246,-1.127888 2.213664,-2.276355 2.856622,-2.942412 0.323194,-0.334721 0.765356,-0.498679 1.20693,-0.496337 z m -3.506872,11.697812 c 0.197369,0.124152 3.181412,0.739039 3.910689,0.861697 0.252799,0.054 0.074,0.318094 -0.274269,0.496306 -0.785977,0.211684 -4.598485,-1.358016 -3.636563,-1.358016 z m 11.606981,2.104516 c -0.600568,0.02153 -1.192692,0.330418 -1.355938,0.913358 0,0.379867 2.758782,0.63116 2.758782,-0.08735 -0.196803,-0.577143 -0.802478,-0.846976 -1.402795,-0.826 z m -12.665107,1.643971 c -0.865585,-0.01121 -1.879117,0.63516 -1.132374,1.290448 0.654091,0.573103 1.664217,-0.145214 1.967066,-0.945048 -0.1782,-0.239991 -0.495923,-0.342242 -0.834666,-0.3454 z m 10.959989,0.05135 c -0.843075,0.766348 0.09385,1.543382 0.924709,1.048325 0.185185,-0.190494 -0.0075,-0.857822 -0.924709,-1.048325 z"
     stroke-width="1.97981"
     style="color:#eff0f1;fill:#d3ecf3;fill-opacity:1"
     class="ColorScheme-Text" />
</svg>
