<?xml version="1.0" encoding="UTF-8" standalone="no"?>
<svg
   viewBox="0 0 16 16"
   version="1.1"
   id="svg1"
   sodipodi:docname="compass.svg"
   inkscape:version="1.3.2 (091e20ef0f, 2023-11-25)"
   width="16"
   height="16"
   xmlns:inkscape="http://www.inkscape.org/namespaces/inkscape"
   xmlns:sodipodi="http://sodipodi.sourceforge.net/DTD/sodipodi-0.dtd"
   xmlns:xlink="http://www.w3.org/1999/xlink"
   xmlns="http://www.w3.org/2000/svg"
   xmlns:svg="http://www.w3.org/2000/svg">
  <sodipodi:namedview
     id="namedview1"
     pagecolor="#ffffff"
     bordercolor="#999999"
     borderopacity="1"
     inkscape:showpageshadow="2"
     inkscape:pageopacity="0"
     inkscape:pagecheckerboard="0"
     inkscape:deskcolor="#d1d1d1"
     inkscape:zoom="11.90625"
     inkscape:cx="11.338583"
     inkscape:cy="16.587927"
     inkscape:window-width="1920"
     inkscape:window-height="999"
     inkscape:window-x="0"
     inkscape:window-y="0"
     inkscape:window-maximized="1"
     inkscape:current-layer="svg1" />
  <defs
     id="defs3051">
    <style
       type="text/css"
       id="current-color-scheme">
            .ColorScheme-Text {
                color:#fcfcfc;
            }
        </style>
    <radialGradient
       inkscape:collect="always"
       xlink:href="#linearGradient4"
       id="radialGradient869-3"
       cx="16"
       cy="8.0000048"
       fx="16"
       fy="8.0000048"
       r="16"
       gradientUnits="userSpaceOnUse"
       gradientTransform="matrix(0.6875,0,0,0.6875,-1.5616093e-6,5.499997)" />
    <linearGradient
       inkscape:collect="always"
       id="linearGradient4">
      <stop
         style="stop-color:#008080;stop-opacity:1;"
         offset="0"
         id="stop3" />
      <stop
         style="stop-color:#008080;stop-opacity:0.01;"
         offset="1"
         id="stop4" />
    </linearGradient>
  </defs>
  <g
     id="22-22-compass"
     transform="scale(0.72727273)">
    <rect
       style="fill:url(#radialGradient869-3);fill-opacity:1;stroke:none;stroke-width:0.6875"
       id="rect2994-2"
       width="22"
       height="22"
       x="0"
       y="0" />
    <path
       d="M 7.7961744,13.825133 12.487118,12.334241 13.982782,7.658258 9.2918374,9.149153 Z m 2.5834176,-3.659463 1.495664,-0.474375 -0.475893,1.490892 -1.4956636,0.474376 z"
       id="path2-2-3-7-9"
       style="fill:#000000;fill-opacity:1;stroke-width:0.678764" />
    <path
       d="m 11.021999,4.125 c -3.7933496,0 -6.8969996,3.09375 -6.8969996,6.875 0,3.78125 3.10365,6.875 6.8969996,6.875 3.793349,0 6.897,-3.09375 6.897,-6.875 0,-3.78125 -3.103651,-6.875 -6.897,-6.875 z m 0,12.644788 C 8.0182704,16.735493 5.2505744,14.765241 5.2337454,11 5.2181354,7.507416 7.9873194,5.230222 11.021999,5.230222 c 3.03468,0 5.841848,2.454256 5.788238,5.769778 -0.05677,3.511022 -2.753758,5.804431 -5.788238,5.769788 z"
       id="path4-3-9-6-5-1"
       style="fill:#000000;fill-opacity:1;stroke-width:0.688607"
       sodipodi:nodetypes="ssssssssss" />
  </g>
</svg>
