<?xml version="1.0" encoding="UTF-8" standalone="no"?>
<svg
   width="22"
   height="22"
   version="1.1"
   id="svg3"
   sodipodi:docname="disk-quota-critical.svg"
   inkscape:version="1.3.2 (091e20ef0f, 2023-11-25)"
   xmlns:inkscape="http://www.inkscape.org/namespaces/inkscape"
   xmlns:sodipodi="http://sodipodi.sourceforge.net/DTD/sodipodi-0.dtd"
   xmlns="http://www.w3.org/2000/svg"
   xmlns:svg="http://www.w3.org/2000/svg">
  <defs
     id="defs3" />
  <sodipodi:namedview
     id="namedview3"
     pagecolor="#ffffff"
     bordercolor="#999999"
     borderopacity="1"
     inkscape:showpageshadow="2"
     inkscape:pageopacity="0"
     inkscape:pagecheckerboard="0"
     inkscape:deskcolor="#d1d1d1"
     inkscape:zoom="11.90625"
     inkscape:cx="10.666667"
     inkscape:cy="24.860892"
     inkscape:window-width="1920"
     inkscape:window-height="994"
     inkscape:window-x="0"
     inkscape:window-y="0"
     inkscape:window-maximized="1"
     inkscape:current-layer="svg3"
     showgrid="true">
    <inkscape:grid
       id="grid1"
       units="px"
       originx="0"
       originy="0"
       spacingx="1"
       spacingy="1"
       empcolor="#0099e5"
       empopacity="0.30196078"
       color="#0099e5"
       opacity="0.14901961"
       empspacing="5"
       dotted="false"
       gridanglex="30"
       gridanglez="30"
       visible="true" />
  </sodipodi:namedview>
  <style
     type="text/css"
     id="current-color-scheme">.ColorScheme-Text{color:#232629;}.ColorScheme-NeutralText{color:#f67400;}.ColorScheme-NegativeText { color: #da4453; } </style>
  <g
     id="22-22-disk-quota-critical-8">
    <rect
       style="opacity:0.00100002"
       width="22"
       height="22"
       x="0"
       y="0"
       id="rect27-9" />
    <path
       d="M 16.57143,3 H 5.42859 C 4.642872,3 4,3.6 4,4.333332 V 17.666665 C 4,18.4 4.642872,19 5.42859,19 H 16.57143 C 17.35715,19 18,18.4 18,17.666665 V 4.333332 C 18,3.6 17.35715,3 16.57143,3 Z M 17,17 c 0,1 0,1 -1,1 H 6 C 5,18 5,18 5,17 V 5 C 5,4 5,4 6,4 h 10 c 1,0 1,0 1,1 z"
       id="path2-3-3-3-0-2"
       style="fill:#d3dae3;fill-opacity:1;stroke-width:0.345031"
       sodipodi:nodetypes="ssssssssscscccsscc" />
    <path
       d="M 15.354,16 H 6.75513 C 6.44823,16 6.2,16.199407 6.2,16.44439 v 0.111612 C 6.2,16.801302 6.44836,17 6.75513,17 H 15.354 c 0.30652,0 0.555,-0.198695 0.555,-0.443998 V 16.44439 C 15.909,16.199601 15.66052,16 15.354,16 Z M 15.0056,16.99364 7,17.00004 l -0.003,-0.0039 -4e-4,9.06e-4 8.0034,0.003 0.003,-0.0031 -9.7e-4,-0.0033 z"
       id="path79-3-8-28"
       style="fill:#c83771;fill-opacity:1;stroke-width:0.0292304"
       sodipodi:nodetypes="ssssssssssccccccs" />
    <path
       d="M 11,6 C 9.93922,6 8.92188,6.421585 8.1716,7.171595 7.42159,7.921824 7,8.939157 7,10 7,11.060843 7.42158,12.07812 8.1716,12.828407 8.92183,13.578411 9.93916,14 11,14 c 1.06084,0 2.07812,-0.421585 2.8284,-1.171593 0.75001,-0.750231 1.17161,-1.767566 1.17161,-2.828408 C 14.99901,8.939608 14.57687,7.922953 13.82682,7.173174 13.07699,6.423172 12.06033,6.001356 11,6 Z m 0,7.010693 v 2.27e-4 l -0.008,0.03445 v 0 0 0 0 0 0 0 z"
       id="path74-6-6-9"
       style="fill:#d35f8d;fill-opacity:1;stroke-width:0.0565059"
       sodipodi:nodetypes="ccscsccccccccccccccc" />
    <path
       d="M 11,8 C 10.46961,8 9.96094,8.210792 9.5858,8.585797 9.2108,8.960912 9,9.469577 9,9.999999 9,10.530423 9.21079,11.039057 9.5858,11.414204 9.96091,11.789205 10.46958,12 11,12 11.53042,12 12.03906,11.789207 12.4142,11.414204 12.7892,11.039087 13,10.530417 13,9.999999 12.99943,9.469803 12.78843,8.961476 12.41341,8.586586 12.03849,8.211585 11.53016,8.000677 11,8 Z m 0,3.505348 v 1.15e-4 l -0.004,0.01722 v 0 0 0 0 0 0 0 z"
       id="path74-6-7-7-7"
       style="fill:#000000;fill-opacity:1;stroke-width:0.0282529"
       sodipodi:nodetypes="ccscsccccccccccccccc" />
  </g>
</svg>
