<?xml version="1.0" encoding="UTF-8" standalone="no"?>
<svg
   width="22"
   height="22"
   version="1.1"
   id="svg6"
   sodipodi:docname="konv_message.svg"
   inkscape:version="1.3.2 (091e20ef0f, 2023-11-25)"
   xmlns:inkscape="http://www.inkscape.org/namespaces/inkscape"
   xmlns:sodipodi="http://sodipodi.sourceforge.net/DTD/sodipodi-0.dtd"
   xmlns="http://www.w3.org/2000/svg"
   xmlns:svg="http://www.w3.org/2000/svg">
  <sodipodi:namedview
     id="namedview1"
     pagecolor="#ffffff"
     bordercolor="#999999"
     borderopacity="1"
     inkscape:showpageshadow="2"
     inkscape:pageopacity="0"
     inkscape:pagecheckerboard="0"
     inkscape:deskcolor="#d1d1d1"
     inkscape:zoom="17.318182"
     inkscape:cx="11.144357"
     inkscape:cy="19.488189"
     inkscape:window-width="1920"
     inkscape:window-height="999"
     inkscape:window-x="0"
     inkscape:window-y="0"
     inkscape:window-maximized="1"
     inkscape:current-layer="svg6"
     showgrid="true">
    <inkscape:grid
       id="grid1"
       units="px"
       originx="0"
       originy="0"
       spacingx="1"
       spacingy="1"
       empcolor="#0099e5"
       empopacity="0.30196078"
       color="#0099e5"
       opacity="0.14902"
       empspacing="5"
       dotted="false"
       gridanglex="30"
       gridanglez="30"
       visible="true" />
  </sodipodi:namedview>
  <defs
     id="defs10" />
  <namedview
     id="namedview8"
     pagecolor="#ffffff"
     bordercolor="#000000"
     borderopacity="0.25"
     inkscape:showpageshadow="2"
     inkscape:pageopacity="0.0"
     inkscape:pagecheckerboard="0"
     inkscape:deskcolor="#d1d1d1"
     showgrid="false"
     inkscape:zoom="35.136364"
     inkscape:cx="9.4773609"
     inkscape:cy="10.98577"
     inkscape:window-width="1920"
     inkscape:window-height="1011"
     inkscape:window-x="0"
     inkscape:window-y="0"
     inkscape:window-maximized="1"
     inkscape:current-layer="svg6" />
  <style
     type="text/css"
     id="current-color-scheme">.ColorScheme-Text{color:#31363b;}.ColorScheme-Background{color:#eff0f1;}.ColorScheme-Highlight{color:#3daee9;}.ColorScheme-ViewText{color:#31363b;}.ColorScheme-ViewBackground{color:#fcfcfc;}.ColorScheme-ViewHover{color:#93cee9;}.ColorScheme-ViewFocus{color:#3daee9;}.ColorScheme-ButtonText{color:#31363b;}.ColorScheme-ButtonBackground{color:#eff0f1;}.ColorScheme-ButtonHover{color:#93cee9;}.ColorScheme-ButtonFocus { color: #3daee9; } </style>
  <g
     id="22-22-konv_message-9"
     transform="translate(-32,-10)">
    <rect
       style="opacity:0.00100002"
       width="22"
       height="22"
       x="32"
       y="10"
       id="rect2-3" />
    <path
       d="M 51.84911,14 H 40.591543 c -0.635468,0 -1.150895,0.378496 -1.150895,1 v 0 H 34.583579 C 33.579419,15 33,15.657641 33,16.804012 V 23.39273 C 33,24.24636 33.540725,25 34.583579,25 h 0.374876 c -0.0596,0.633373 -0.270519,1.494446 -0.938628,2.284435 L 33.41481,28 34.352561,27.853738 C 34.497527,27.830868 37.776317,27.351201 38.398542,25 H 46.472 C 47.496965,25 48,24.422943 48,23.392515 v -0.955452 h 0.540521 c 0.354141,2.236219 3.578437,2.738647 3.578437,2.738647 -0.824994,-0.9753 -0.965546,-2.137202 -0.9768,-2.738647 H 51.84911 C 52.484793,22.437063 53,21.933341 53,21.311833 V 15.125014 C 53,14.50351 52.484793,14 51.84911,14 Z M 47,23.093 C 47,23.560479 47,24 45.972,24 h -8.172291 l -0.04672,0.537374 c -0.220225,1.390788 -1.678471,2.08888 -2.645787,2.402977 0.479024,-0.901736 0.677648,-1.811024 0.687798,-2.342789 L 35.802,24 H 34.759095 C 34.281176,24 34,23.86064 34,23.393161 V 16.804012 C 34,16.336533 34.206081,16 34.684,16 H 46.172 C 46.649918,16 47,16.273621 47,16.804012 Z"
       id="path2-3-6"
       style="fill:#d3dae3;fill-opacity:1;stroke-width:0.218167"
       sodipodi:nodetypes="ssscsssscccccssccccsssscscccccssssssc" />
    <path
       d="m 36.990482,18.587 c -0.734552,0 -1.331896,0.597563 -1.331896,1.332112 0,0.734333 0.597344,1.33211 1.331896,1.33211 0.734548,0 1.332109,-0.597777 1.332109,-1.33211 0,-0.734549 -0.597561,-1.332112 -1.332109,-1.332112 z m 0,0.701112 z"
       id="path4-7"
       style="fill:#00b2b2;fill-opacity:1;stroke-width:0.215722"
       sodipodi:nodetypes="sssssccccc" />
    <path
       d="m 40.418162,18.587 c -0.734549,0 -1.33211,0.597563 -1.33211,1.332112 0,0.734333 0.597561,1.33211 1.33211,1.33211 0.734541,0 1.33211,-0.597777 1.33211,-1.33211 0,-0.734549 -0.597569,-1.332112 -1.33211,-1.332112 z m 0,0.701112 z"
       id="path6-5"
       style="fill:#00b2b2;fill-opacity:1;stroke-width:0.215722"
       sodipodi:nodetypes="sssssccccc" />
    <path
       d="m 43.845622,18.587 c -0.734336,0 -1.332116,0.597563 -1.332116,1.332112 0,0.734333 0.59778,1.33211 1.332116,1.33211 0.734546,0 1.332325,-0.597777 1.332325,-1.33211 0,-0.734549 -0.597779,-1.332112 -1.332325,-1.332112 z m 0,0.701112 z"
       id="path8-3"
       style="fill:#00b2b2;fill-opacity:1;stroke-width:0.215722"
       sodipodi:nodetypes="sssssccccc" />
  </g>
</svg>
