<?xml version="1.0" encoding="UTF-8" standalone="no"?>
<svg
   viewBox="0 0 32 32"
   version="1.1"
   id="svg1"
   sodipodi:docname="system-reboot.svg"
   inkscape:version="1.3.2 (091e20ef0f, 2023-11-25)"
   width="32"
   height="32"
   xmlns:inkscape="http://www.inkscape.org/namespaces/inkscape"
   xmlns:sodipodi="http://sodipodi.sourceforge.net/DTD/sodipodi-0.dtd"
   xmlns:xlink="http://www.w3.org/1999/xlink"
   xmlns="http://www.w3.org/2000/svg"
   xmlns:svg="http://www.w3.org/2000/svg">
  <sodipodi:namedview
     id="namedview1"
     pagecolor="#ffffff"
     bordercolor="#000000"
     borderopacity="0.25"
     inkscape:showpageshadow="2"
     inkscape:pageopacity="0.0"
     inkscape:pagecheckerboard="0"
     inkscape:deskcolor="#d1d1d1"
     inkscape:zoom="12.326157"
     inkscape:cx="15.576631"
     inkscape:cy="20.728277"
     inkscape:window-width="1920"
     inkscape:window-height="999"
     inkscape:window-x="0"
     inkscape:window-y="0"
     inkscape:window-maximized="1"
     inkscape:current-layer="svg1" />
  <defs
     id="defs1">
    <style
       type="text/css"
       id="style1">.ColorScheme-Text {
        color:#d8dee9;
      }
      .ColorScheme-Highlight {
        color:#88c0d0;
      }</style>
    <linearGradient
       id="a-5"
       x1="16"
       x2="16"
       y1="1"
       y2="31"
       gradientUnits="userSpaceOnUse">
      <stop
         stop-color="#f4282c"
         offset="0"
         id="stop1009" />
      <stop
         stop-color="#fac136"
         offset="1"
         id="stop1011" />
    </linearGradient>
    <linearGradient
       inkscape:collect="always"
       xlink:href="#linearGradient52"
       id="linearGradient5"
       gradientUnits="userSpaceOnUse"
       gradientTransform="matrix(0.6875,0,0,0.6875,108.66985,103.7705)"
       x1="-199"
       y1="91"
       x2="-167"
       y2="91" />
    <linearGradient
       inkscape:collect="always"
       id="linearGradient52">
      <stop
         style="stop-color:#4e51ac;stop-opacity:1"
         offset="0"
         id="stop39" />
      <stop
         style="stop-color:#008080;stop-opacity:1"
         offset="1"
         id="stop40" />
    </linearGradient>
    <radialGradient
       gradientUnits="userSpaceOnUse"
       r="11"
       fy="12"
       fx="72"
       cy="12"
       cx="72"
       id="radialGradient902"
       xlink:href="#linearGradient4"
       inkscape:collect="always"
       gradientTransform="matrix(1.4545461,0,0,1.4545461,-28.727274,-1.4545455)" />
    <linearGradient
       id="linearGradient4"
       inkscape:collect="always">
      <stop
         id="stop3"
         offset="0"
         style="stop-color:#008080;stop-opacity:1;" />
      <stop
         id="stop4"
         offset="1"
         style="stop-color:#008080;stop-opacity:0.01;" />
    </linearGradient>
  </defs>
  <g
     transform="translate(-60)"
     id="system-reboot">
    <rect
       style="color:#000000;display:inline;overflow:visible;visibility:visible;opacity:0.01;fill:#000000;fill-opacity:0.00392157;stroke:none;stroke-width:6.66662;marker:none;enable-background:accumulate"
       id="rect4570-72"
       width="32"
       height="32"
       x="60"
       y="0" />
    <path
       id="path4984-0-94-2"
       style="color:#000000;display:inline;overflow:visible;visibility:visible;fill:url(#radialGradient902);fill-opacity:1;fill-rule:evenodd;stroke:none;stroke-width:4.36369;marker:none;enable-background:accumulate"
       d="M 64.363631,0 H 87.636369 C 90.545462,0 92,1.4545462 92,4.3636369 V 27.636369 C 92,30.545462 90.545462,32 87.636369,32 H 64.363631 C 61.454538,32 60,30.545462 60,27.636369 V 4.3636369 C 60,1.4545462 61.454538,0 64.363631,0 Z m 11.618547,5.9508911 c -2.572591,-0.0011 -5.145237,0.9765479 -7.100449,2.9352799 -3.91014,3.917365 -3.912116,10.306579 0,14.225435 3.912415,3.918692 10.29045,3.924188 14.200894,0.0066 l -1.937488,-1.944047 c -2.863425,2.868235 -7.458986,2.867595 -10.323679,-9.94e-4 -2.864612,-2.869631 -2.865995,-7.47327 -0.0016,-10.341517 2.773731,-2.778402 7.167942,-2.855865 10.044637,-0.249995 -1.146432,1.198153 -2.132917,2.307592 -2.082593,2.508928 0.126742,0.506816 8.066328,2.491723 8.446428,2.111604 C 87.607824,14.821893 85.62292,6.88006 85.116099,6.75334 84.926397,6.70599 83.921883,7.594199 82.810269,8.64617 80.890093,6.858389 78.439454,5.953213 75.982104,5.952 Z"
       inkscape:connector-curvature="0" />
  </g>
</svg>
