<?xml version="1.0" encoding="UTF-8" standalone="no"?>
<svg
   viewBox="0 0 22 22"
   version="1.1"
   id="svg1"
   sodipodi:docname="window-unpin.svg"
   width="22"
   height="22"
   inkscape:version="1.3.2 (091e20ef0f, 2023-11-25)"
   xmlns:inkscape="http://www.inkscape.org/namespaces/inkscape"
   xmlns:sodipodi="http://sodipodi.sourceforge.net/DTD/sodipodi-0.dtd"
   xmlns="http://www.w3.org/2000/svg"
   xmlns:svg="http://www.w3.org/2000/svg">
  <defs
     id="defs1" />
  <sodipodi:namedview
     id="namedview1"
     pagecolor="#ffffff"
     bordercolor="#999999"
     borderopacity="1"
     inkscape:showpageshadow="2"
     inkscape:pageopacity="0"
     inkscape:pagecheckerboard="0"
     inkscape:deskcolor="#d1d1d1"
     inkscape:zoom="8.6590909"
     inkscape:cx="11.317585"
     inkscape:cy="23.097113"
     inkscape:window-width="1920"
     inkscape:window-height="994"
     inkscape:window-x="0"
     inkscape:window-y="0"
     inkscape:window-maximized="1"
     inkscape:current-layer="svg1" />
  <style
     type="text/css"
     id="current-color-scheme">
        .ColorScheme-Text {
            color:#d8d8d8;
        }
    </style>
  <g
     id="window-pin"
     transform="matrix(2.75,0,0,2.75,126.5,-121)">
    <rect
       style="opacity:0.00100002"
       width="8"
       height="8"
       x="-46"
       y="44"
       id="rect2" />
    <path
       style="fill:#c83771;fill-opacity:1;stroke-width:0.681819"
       d="m -41.318218,45.272728 c -0.265397,0.265394 -0.319339,0.739328 -0.01057,1.257098 l -1.448865,0.969467 c -0.180135,-0.07269 -0.373497,-0.12688 -0.564625,-0.127844 -0.248443,-0.0014 -0.490059,0.07457 -0.703127,0.287642 l 1.022727,1.022727 -1.363636,1.363637 -0.340958,0.681817 0.681819,-0.340908 1.363636,-1.363636 1.022727,1.022728 c 0.37737,-0.37737 0.328887,-0.854915 0.159797,-1.267758 l 0.969468,-1.448859 c 0.517769,0.308684 0.991705,0.254737 1.257097,-0.01071 z"
       id="path4" />
  </g>
</svg>
