<?xml version="1.0" encoding="UTF-8" standalone="no"?>
<svg
   viewBox="0 0 24 24"
   version="1.1"
   id="svg1"
   sodipodi:docname="window-close.svg"
   width="24"
   height="24"
   inkscape:version="1.3.2 (091e20ef0f, 2023-11-25)"
   xmlns:inkscape="http://www.inkscape.org/namespaces/inkscape"
   xmlns:sodipodi="http://sodipodi.sourceforge.net/DTD/sodipodi-0.dtd"
   xmlns="http://www.w3.org/2000/svg"
   xmlns:svg="http://www.w3.org/2000/svg">
  <sodipodi:namedview
     id="namedview1"
     pagecolor="#ffffff"
     bordercolor="#999999"
     borderopacity="1"
     inkscape:showpageshadow="2"
     inkscape:pageopacity="0"
     inkscape:pagecheckerboard="0"
     inkscape:deskcolor="#d1d1d1"
     inkscape:zoom="11.22532"
     inkscape:cx="17.193274"
     inkscape:cy="4.7660111"
     inkscape:window-width="1920"
     inkscape:window-height="999"
     inkscape:window-x="0"
     inkscape:window-y="0"
     inkscape:window-maximized="1"
     inkscape:current-layer="svg1" />
  <defs
     id="defs1">
    <style
       id="current-color-scheme"
       type="text/css">
      .ColorScheme-Text { color: #D8D8D8 }
    </style>
  </defs>
  <g
     id="window-close"
     transform="scale(0.75)">
    <rect
       style="opacity:0.00100002"
       width="32"
       height="32"
       x="0"
       y="0"
       id="rect23" />
    <g
       transform="matrix(2.623967,0,0,2.624922,-162.42563,-1364.7087)"
       id="g29">
      <g
         transform="translate(19,-242)"
         id="g27">
        <path
           style="fill:#00b8b8;fill-opacity:1;stroke-width:1.03705"
           d="m 45.444261,764.44444 h 0.888887 c 0.0094,-1.1e-4 0.01847,-4e-4 0.02779,0 0.226625,0.0105 0.453217,0.11431 0.611111,0.2778 l 2.027778,2.02776 2.055556,-2.02776 c 0.236111,-0.20492 0.397041,-0.27155 0.611111,-0.2778 h 0.888889 v 0.88889 c 0,0.25465 -0.03053,0.48949 -0.222222,0.66666 l -2.027778,2.0278 2,1.99998 c 0.167279,0.16726 0.249993,0.40307 0.25,0.6389 v 0.88889 h -0.888889 c -0.235822,-10e-6 -0.471633,-0.0828 -0.638888,-0.25 l -2.027779,-2.02778 -2.027778,2.02778 c -0.167263,0.16728 -0.403079,0.25 -0.638894,0.25 h -0.888887 v -0.88889 c -3e-6,-0.23582 0.08272,-0.47164 0.250001,-0.6389 l 2.027776,-1.99998 -2.027776,-2.0278 c -0.187326,-0.17298 -0.269476,-0.41712 -0.250001,-0.66666 z"
           id="path25" />
      </g>
    </g>
  </g>
</svg>
