<?xml version="1.0" encoding="UTF-8"?>
<svg xmlns="http://www.w3.org/2000/svg" xmlns:xlink="http://www.w3.org/1999/xlink" width="64pt" height="64pt" viewBox="0 0 64 64" version="1.1">
<g id="surface1">
<path style=" stroke:none;fill-rule:nonzero;fill:rgb(87.45098%,87.45098%,87.45098%);fill-opacity:1;" d="M 32 4 L 16 20 L 4 20 L 4 44 L 16 44 L 32 60 Z M 40 4 L 40 10 C 49.28125 12.960938 56 21.71875 56 32 C 56 42.28125 49.28125 51.039062 40 54 L 40 60 C 52.601562 56.878906 62 45.601562 62 32 C 62 18.398438 52.601562 7.121094 40 4 Z M 40 20 L 40 44 C 44.238281 41.679688 47.15625 37.199219 47.15625 32 C 47.15625 26.800781 44.28125 22.320312 40 20 Z M 40 20 "/>
</g>
</svg>
