<?xml version="1.0" encoding="UTF-8" standalone="no"?>
<svg
   viewBox="0 0 56 56"
   version="1.1"
   id="svg6"
   sodipodi:docname="bookmarks.svg"
   inkscape:version="1.3.2 (091e20ef0f, 2023-11-25)"
   width="56"
   height="56"
   xmlns:inkscape="http://www.inkscape.org/namespaces/inkscape"
   xmlns:sodipodi="http://sodipodi.sourceforge.net/DTD/sodipodi-0.dtd"
   xmlns:xlink="http://www.w3.org/1999/xlink"
   xmlns="http://www.w3.org/2000/svg"
   xmlns:svg="http://www.w3.org/2000/svg"
   xmlns:rdf="http://www.w3.org/1999/02/22-rdf-syntax-ns#"
   xmlns:cc="http://creativecommons.org/ns#"
   xmlns:dc="http://purl.org/dc/elements/1.1/">
  <metadata
     id="metadata10">
    <rdf:RDF>
      <cc:Work
         rdf:about="">
        <dc:format>image/svg+xml</dc:format>
        <dc:type
           rdf:resource="http://purl.org/dc/dcmitype/StillImage" />
      </cc:Work>
    </rdf:RDF>
  </metadata>
  <sodipodi:namedview
     pagecolor="#ffffff"
     bordercolor="#666666"
     borderopacity="1"
     objecttolerance="10"
     gridtolerance="10"
     guidetolerance="10"
     inkscape:pageopacity="0"
     inkscape:pageshadow="2"
     inkscape:window-width="1920"
     inkscape:window-height="999"
     id="namedview8"
     showgrid="false"
     inkscape:zoom="7.1363635"
     inkscape:cx="19.33758"
     inkscape:cy="43.649682"
     inkscape:window-x="0"
     inkscape:window-y="0"
     inkscape:window-maximized="1"
     inkscape:current-layer="svg6"
     inkscape:lockguides="false"
     inkscape:document-rotation="0"
     inkscape:showpageshadow="2"
     inkscape:pagecheckerboard="0"
     inkscape:deskcolor="#d1d1d1">
    <inkscape:grid
       type="xygrid"
       id="grid858"
       originx="0"
       originy="0"
       spacingy="1"
       spacingx="1"
       units="px"
       visible="false" />
  </sodipodi:namedview>
  <defs
     id="defs3051">
    <linearGradient
       id="linearGradient1"
       inkscape:collect="always">
      <stop
         style="stop-color:#00d3d3;stop-opacity:1;"
         offset="0"
         id="stop1" />
      <stop
         style="stop-color:#00a5a5;stop-opacity:1;"
         offset="1"
         id="stop2" />
    </linearGradient>
    <style
       type="text/css"
       id="current-color-scheme" />
    <linearGradient
       inkscape:collect="always"
       id="linearGradient22063-0">
      <stop
         style="stop-color:#88c0d0;stop-opacity:1;"
         offset="0"
         id="stop22059-6" />
      <stop
         style="stop-color:#5e81ac;stop-opacity:1;"
         offset="1"
         id="stop22061-2" />
    </linearGradient>
    <linearGradient
       xlink:href="#linearGradient22063-0"
       id="linearGradient4166"
       x1="32.249001"
       y1="42.036999"
       x2="16.546"
       y2="4.902"
       gradientUnits="userSpaceOnUse"
       gradientTransform="matrix(1.0500003,0,0,1.0500003,-55.202867,-4.5352658)" />
    <linearGradient
       id="c"
       gradientUnits="userSpaceOnUse"
       x1="11.072659"
       x2="10.958864"
       y1="19.88957"
       y2="1.993852"
       gradientTransform="matrix(1.888889,0,0,1.888889,-119.04897,29.730695)">
      <stop
         offset="0"
         stop-color="#197cf1"
         id="stop12"
         style="stop-color:#00b4b4;stop-opacity:1;" />
      <stop
         offset="1"
         stop-color="#21c9fb"
         id="stop14"
         style="stop-color:#00dcdc;stop-opacity:1;" />
    </linearGradient>
    <linearGradient
       inkscape:collect="always"
       xlink:href="#linearGradient1"
       id="linearGradient2"
       x1="33.203823"
       y1="7"
       x2="30.585297"
       y2="48.840256"
       gradientUnits="userSpaceOnUse"
       gradientTransform="matrix(1.0952387,0,0,1.0952387,-2.6666695,-2.6666695)" />
  </defs>
  <circle
     cx="28"
     cy="28"
     stroke-width="2.2528"
     id="circle17-0"
     r="23"
     style="fill:url(#linearGradient2)" />
  <path
     d="m 29.212441,19.664926 c 2.28686,2.333351 2.284536,6.088372 0,8.424166 L 19.091367,38.440144 c -3.377572,-3.4464 -6.755232,-6.892752 -10.132744,-10.33909 -2.2870348,-2.333333 -2.2870348,-6.090842 0,-8.424202 2.286967,-2.333572 5.969257,-2.333601 8.2562,0 l 1.864826,1.902826 1.876398,-1.914753 c 2.287033,-2.333579 5.969247,-2.333579 8.256394,1e-6 z"
     style="color:#000000;fill:#dc3545;fill-opacity:1;stroke-width:0.394706;enable-background:accumulate"
     stroke="none"
     marker="none"
     visibility="visible"
     display="inline"
     overflow="visible"
     id="path2-3-3-3-3-3" />
  <path
     d="m 35.308166,23.871355 h 4.610908 c 0.961516,0 1.726355,0.764835 1.726355,1.726337 v 4.610902 c 0,0.961526 -0.764856,1.726342 -1.726355,1.726342 h -4.610908 c -0.961455,0 -1.726264,-0.764816 -1.726264,-1.726342 v -4.610902 c 0,-0.961502 0.786678,-1.726337 1.726264,-1.726337 z"
     id="path14-6-5-6-6"
     style="fill:#ffffff;fill-opacity:1;stroke-width:1.01655" />
  <path
     d="m 35.308166,10.622081 h 4.610908 c 0.961499,0 1.726355,0.76485 1.726355,1.726364 v 4.610832 c 0,0.961514 -0.764856,1.726339 -1.726355,1.726339 h -4.610908 c -0.961455,0 -1.726264,-0.764825 -1.726264,-1.726339 v -4.610832 c 0,-0.961514 0.786678,-1.726364 1.726264,-1.726364 z"
     id="path14-5-7-6-7-7"
     style="fill:#ffffff;fill-opacity:1;stroke-width:0.218534" />
  <path
     d="m 35.308166,37.120685 h 4.610908 c 0.961499,0 1.726355,0.764815 1.726355,1.72632 v 4.610863 c 0,0.961512 -0.764856,1.726351 -1.726355,1.726351 h -4.610908 c -0.961455,0 -1.726264,-0.764839 -1.726264,-1.726351 v -4.610863 c 0,-0.961505 0.786678,-1.72632 1.726264,-1.72632 z"
     id="path14-9-5-2-5-5"
     style="fill:#ffffff;fill-opacity:1;stroke-width:0.218534" />
</svg>
