<?xml version="1.0" encoding="UTF-8" standalone="no"?>
<svg
   viewBox="0 0 32.000008 32.000008"
   id="svg6"
   version="1.1"
   sodipodi:docname="media-seek-backward.svg"
   width="32.000008"
   height="32.000008"
   inkscape:version="1.3.2 (091e20ef0f, 2023-11-25)"
   xmlns:inkscape="http://www.inkscape.org/namespaces/inkscape"
   xmlns:sodipodi="http://sodipodi.sourceforge.net/DTD/sodipodi-0.dtd"
   xmlns="http://www.w3.org/2000/svg"
   xmlns:svg="http://www.w3.org/2000/svg">
  <defs
     id="defs1" />
  <sodipodi:namedview
     id="namedview1"
     pagecolor="#ffffff"
     bordercolor="#999999"
     borderopacity="1"
     inkscape:showpageshadow="2"
     inkscape:pageopacity="0"
     inkscape:pagecheckerboard="0"
     inkscape:deskcolor="#d1d1d1"
     inkscape:zoom="9.9466905"
     inkscape:cx="11.260027"
     inkscape:cy="14.175569"
     inkscape:window-width="1920"
     inkscape:window-height="994"
     inkscape:window-x="0"
     inkscape:window-y="0"
     inkscape:window-maximized="1"
     inkscape:current-layer="svg6" />
  <style
     type="text/css"
     id="current-color-scheme">.ColorScheme-Text { color: #fcfcfc; } </style>
  <g
     transform="matrix(-1,0,0,1,27,-45)"
     id="media-seek-backward"
     style="fill:#d3dae3;fill-opacity:1">
    <rect
       id="rect140"
       y="0"
       x="0"
       height="32"
       width="32"
       style="opacity:0.00100002;fill:#d3dae3;fill-opacity:1" />
    <path
       inkscape:connector-curvature="0"
       id="path148"
       d="M 16,4 A 12,12 0 0 0 4,16 12,12 0 0 0 16,28 12,12 0 0 0 28,16 12,12 0 0 0 16,4 Z m -5.981251,6.004692 a 1.3093405,1.3850914 0 0 1 0.03518,0 1.3093405,1.3850914 0 0 1 0.747655,0.208589 l 3.492182,2.306248 1.706247,1.127346 v -2.259378 a 1.3093405,1.3850914 0 0 1 1.253909,-1.382805 1.3093405,1.3850914 0 0 1 0.74766,0.208589 l 3.492184,2.306248 3.492182,2.308596 a 1.3093405,1.3850914 0 0 1 0,2.348437 l -3.492182,2.308589 -3.492184,2.306261 A 1.3093405,1.3850914 0 0 1 16,20.617189 v -2.259378 l -1.706248,1.12734 -3.492185,2.306261 A 1.3093405,1.3850914 0 0 1 8.8,20.617189 v -9.229692 a 1.3093405,1.3850914 0 0 1 1.218749,-1.382805 z"
       style="opacity:1;fill:#d3dae3;fill-opacity:1;stroke-width:1.2" />
  </g>
  <path
     style="opacity:0.00100002;fill:#d3dae3;fill-opacity:1;stroke-width:1.45455"
     d="M 0,0 H 32.000008 V 32.000006 H 0 Z"
     id="path47" />
  <path
     d="m 7.5146811,24.48527 c 2.2665103,2.266559 5.2802349,3.514734 8.4853199,3.514734 3.205075,0 6.218814,-1.248175 8.485075,-3.514734 2.26673,-2.266559 3.514926,-5.280026 3.514926,-8.485267 0,-3.20524 -1.248196,-6.2186971 -3.514926,-8.4852739 -2.266261,-2.2663652 -5.28,-3.5147253 -8.485075,-3.5147253 -3.205324,0 -6.2188096,1.2483601 -8.4853199,3.5147253 -2.2663201,2.2665768 -3.5146758,5.2800339 -3.5146758,8.4852739 0,3.205241 1.2483557,6.218835 3.5146758,8.485267 z M 8.8850197,8.1853486 C 11.094518,6.311144 12.876516,5.4251389 16.000001,5.448014 c 3.315955,0.024451 4.545956,0.6473099 7.114985,2.7379798 2.08744,2.0872522 3.437002,4.8620732 3.437002,7.8140092 0,2.952115 -1.392409,6.090414 -3.437002,7.814995 -2.293758,2.015581 -4.205649,2.714951 -7.114985,2.736992 -2.951885,0.02247 -4.927567,-0.919472 -7.1149813,-2.737207 -2.0874047,-2.087373 -3.4370042,-4.862665 -3.4370042,-7.81478 0,-2.951936 1.3495995,-5.727417 3.4370042,-7.8146544 z"
     id="path2-36-912-3-36-3"
     style="fill:#d3dae3;fill-opacity:1;stroke-width:0.0374999"
     sodipodi:nodetypes="cscscscsccscscscsc" />
  <path
     d="m 8.5954671,15.605298 c -2.93e-4,-0.163158 0.06489,-0.319701 0.1807544,-0.434961 l 4.9175575,-4.189069 c 0.494889,-0.372648 1.844167,-0.424309 1.844613,0.84295 v 3.909533 3.394609 c 0,0.474021 0.104955,1.385274 -0.316245,1.806251 v 0 c -0.422384,0.420523 -1.107233,0.420523 -1.529596,0 L 8.7762215,16.040274 C 8.6601816,15.925073 8.5951755,15.768458 8.5954671,15.605298 Z"
     id="path4-3-75-3-6"
     style="fill:#d3dae3;fill-opacity:1;stroke-width:0.30831"
     sodipodi:nodetypes="ccccccssccc" />
  <path
     d="m 15.045457,15.605298 c -3e-4,-0.163158 0.06488,-0.319701 0.180762,-0.434961 l 4.91755,-4.189069 c 0.494885,-0.372648 1.844167,-0.424309 1.844613,0.84295 v 3.909533 3.394609 c 0,0.474021 0.104999,1.385274 -0.316247,1.806251 v 0 c -0.422385,0.420523 -1.107227,0.420523 -1.529598,0 l -4.916318,-4.894337 c -0.116056,-0.115201 -0.181062,-0.271816 -0.180762,-0.434976 z"
     id="path4-3-75-3-6-1"
     style="fill:#d3dae3;fill-opacity:1;stroke-width:0.30831"
     sodipodi:nodetypes="ccccccssccc" />
</svg>
