<?xml version="1.0" encoding="UTF-8" standalone="no"?>
<svg
   viewBox="0 0 32 32"
   id="svg6"
   width="32"
   height="32"
   version="1.1"
   sodipodi:docname="media-skip-forward.svg"
   inkscape:version="1.3.2 (091e20ef0f, 2023-11-25)"
   xmlns:inkscape="http://www.inkscape.org/namespaces/inkscape"
   xmlns:sodipodi="http://sodipodi.sourceforge.net/DTD/sodipodi-0.dtd"
   xmlns="http://www.w3.org/2000/svg"
   xmlns:svg="http://www.w3.org/2000/svg">
  <defs
     id="defs1" />
  <sodipodi:namedview
     id="namedview1"
     pagecolor="#ffffff"
     bordercolor="#999999"
     borderopacity="1"
     inkscape:showpageshadow="2"
     inkscape:pageopacity="0"
     inkscape:pagecheckerboard="0"
     inkscape:deskcolor="#d1d1d1"
     inkscape:zoom="5.6126601"
     inkscape:cx="11.224624"
     inkscape:cy="11.402793"
     inkscape:window-width="1920"
     inkscape:window-height="994"
     inkscape:window-x="0"
     inkscape:window-y="0"
     inkscape:window-maximized="1"
     inkscape:current-layer="svg6" />
  <style
     type="text/css"
     id="current-color-scheme">.ColorScheme-Text { color: #fcfcfc; } </style>
  <path
     style="opacity:0.00100002;fill:#d6dbf1;fill-opacity:1;stroke-width:1.45455"
     d="M 0,0 H 32.000001 V 32.000001 H 0 Z"
     id="path37" />
  <path
     d="M 7.5147374,7.5147031 C 5.2481789,9.7811805 4,12.794897 4,16 4,19.205088 5.2481789,22.218815 7.5147374,24.485074 9.7812985,26.751806 12.794763,28 16.000002,28 c 3.20524,0 6.218702,-1.248194 8.485261,-3.514926 2.266383,-2.266259 3.51474,-5.279986 3.51474,-8.485074 0,-3.205313 -1.248357,-6.2188195 -3.51474,-8.4852969 C 22.218704,5.2483579 19.205242,4 16.000002,4 12.794764,4 9.7811645,5.2483579 7.5147374,7.5147031 Z M 23.814655,8.884999 c 1.874209,2.20952 2.760214,3.991498 2.737335,7.115001 -0.02441,3.315964 -0.64731,4.545958 -2.737978,7.114984 -2.087252,2.087436 -4.862069,3.437003 -7.814008,3.437003 -2.952114,0 -6.0904225,-1.392412 -7.8150033,-3.437003 C 6.1694197,20.821227 5.4700506,18.909337 5.4480125,16 5.4255635,13.048133 6.3674809,11.072413 8.1852198,8.884999 10.272596,6.7976247 13.04789,5.4480049 16.000004,5.4480049 c 2.951939,0 5.727408,1.3496198 7.814651,3.4369941 z"
     id="path2-36-912-3-3-35-3-75-2"
     style="fill:#d3dae3;fill-opacity:1;stroke-width:0.0374998"
     sodipodi:nodetypes="cscscscsccscscscsc" />
  <path
     d="m 19.055901,20.921832 v -9.921791 c 0.0092,-2.5318224 2.971855,-2.5318224 2.981367,0 v 9.921791 c -0.0092,2.53182 -2.971855,2.53182 -2.981367,0 z m 0.596262,-9.921791 z"
     id="path8-6-7-36-2-9"
     style="fill:#d3dae3;fill-opacity:1;stroke-width:0.337302"
     sodipodi:nodetypes="cccccccccc" />
  <path
     d="m 19.0559,15.982111 c 3.77e-4,0.208486 -0.08336,0.408745 -0.232475,0.556027 l -6.324356,5.948971 C 11.862601,22.963263 10.12732,23.02927 10.126747,21.410044 V 16.414737 12.07734 c 0,-0.605664 -0.1350415,-1.770006 0.40672,-2.3078885 v 0 c 0.543218,-0.5373171 1.423963,-0.5373171 1.967184,0 l 6.322774,5.6566345 c 0.149206,0.14728 0.232852,0.347554 0.232475,0.556025 z"
     id="path4-3-75-3-7-3"
     style="fill:#d3dae3;fill-opacity:1;stroke-width:0.395224"
     sodipodi:nodetypes="ccccccssccc" />
</svg>
