<?xml version="1.0" encoding="UTF-8" standalone="no"?>
<svg
   viewBox="0 0 32 32"
   version="1.1"
   id="svg1"
   sodipodi:docname="window-close.svg"
   width="32"
   height="32"
   inkscape:version="1.3.2 (091e20ef0f, 2023-11-25)"
   xmlns:inkscape="http://www.inkscape.org/namespaces/inkscape"
   xmlns:sodipodi="http://sodipodi.sourceforge.net/DTD/sodipodi-0.dtd"
   xmlns="http://www.w3.org/2000/svg"
   xmlns:svg="http://www.w3.org/2000/svg">
  <sodipodi:namedview
     id="namedview1"
     pagecolor="#ffffff"
     bordercolor="#999999"
     borderopacity="1"
     inkscape:showpageshadow="2"
     inkscape:pageopacity="0"
     inkscape:pagecheckerboard="0"
     inkscape:deskcolor="#d1d1d1"
     inkscape:zoom="11.22532"
     inkscape:cx="11.937299"
     inkscape:cy="17.415985"
     inkscape:window-width="1920"
     inkscape:window-height="999"
     inkscape:window-x="0"
     inkscape:window-y="0"
     inkscape:window-maximized="1"
     inkscape:current-layer="svg1" />
  <defs
     id="defs1">
    <style
       id="current-color-scheme"
       type="text/css">
      .ColorScheme-Text { color: #D8D8D8 }
    </style>
  </defs>
  <g
     class="ColorScheme-Text"
     style="fill:currentColor"
     transform="matrix(1.7173004,0,0,1.7173004,13.732747,-26.353854)"
     id="g1">
    <!-- ≈ M -6,-6 6,6 M -6,6 6,-6 -->
    <path
       d="m 0,-1.414 -5.293,-5.293 a 1,1 0 0 0 -1.414,1.414 L -1.414,0 -6.707,5.293 a 1,1 0 0 0 1.414,1.414 L 0,1.414 5.293,6.707 A 1,1 0 0 0 6.707,5.293 L 1.414,0 6.707,-5.293 A 1,1 0 0 0 5.293,-6.707"
       id="path1" />
  </g>
  <g
     id="g2">
    <rect
       style="opacity:0.00100002"
       width="32"
       height="32"
       x="0"
       y="0"
       id="rect23" />
    <path
       style="fill:#00b2b2;fill-opacity:1;stroke-width:3.49949"
       d="m 4.0094276,4.0004992 h 2.998764 c 0.032301,-2.887e-4 0.062293,-0.00105 0.093912,0 0.7645216,0.037536 1.5289724,0.3860473 2.0616666,0.9379109 L 16.004767,11.781529 22.939445,4.9384101 C 23.73601,4.2464019 24.278917,4.0218398 25.001106,4.0004992 h 2.998822 v 3.0000759 c 0,0.8593732 -0.103096,1.6521259 -0.749707,2.2496894 l -6.840994,6.8439065 6.747282,6.749305 c 0.564354,0.56483 0.84339,1.360392 0.843419,2.156452 v 3.000023 h -2.998827 c -0.79554,-2.6e-5 -1.591074,-0.279817 -2.155345,-0.843886 L 16.004762,20.312657 9.1637621,27.156065 C 8.5994439,27.720476 7.803907,27.999951 7.0083438,27.999951 H 4.0094959 v -3.000023 c -7.9e-6,-0.796034 0.2789775,-1.591622 0.8434295,-2.156452 L 11.693893,16.094171 4.8529254,9.2502645 C 4.2209614,8.666823 3.943797,7.8426238 4.0094959,7.0005751 Z"
       id="path25" />
  </g>
</svg>
