<?xml version="1.0" encoding="UTF-8" standalone="no"?>
<svg
   viewBox="0 0 22 21.999998"
   id="svg6"
   version="1.1"
   sodipodi:docname="media-seek-backward.svg"
   width="22"
   height="21.999998"
   inkscape:version="1.3.2 (091e20ef0f, 2023-11-25)"
   xmlns:inkscape="http://www.inkscape.org/namespaces/inkscape"
   xmlns:sodipodi="http://sodipodi.sourceforge.net/DTD/sodipodi-0.dtd"
   xmlns="http://www.w3.org/2000/svg"
   xmlns:svg="http://www.w3.org/2000/svg">
  <defs
     id="defs1" />
  <sodipodi:namedview
     id="namedview1"
     pagecolor="#ffffff"
     bordercolor="#999999"
     borderopacity="1"
     inkscape:showpageshadow="2"
     inkscape:pageopacity="0"
     inkscape:pagecheckerboard="0"
     inkscape:deskcolor="#d1d1d1"
     inkscape:zoom="12.245804"
     inkscape:cx="10.860863"
     inkscape:cy="24.089884"
     inkscape:window-width="1920"
     inkscape:window-height="994"
     inkscape:window-x="0"
     inkscape:window-y="0"
     inkscape:window-maximized="1"
     inkscape:current-layer="svg6"
     showgrid="true">
    <inkscape:grid
       id="grid2"
       units="px"
       originx="0"
       originy="0"
       spacingx="1"
       spacingy="1"
       empcolor="#0099e5"
       empopacity="0.30196078"
       color="#0099e5"
       opacity="0.14902"
       empspacing="5"
       dotted="false"
       gridanglex="30"
       gridanglez="30"
       visible="true" />
  </sodipodi:namedview>
  <style
     type="text/css"
     id="current-color-scheme">.ColorScheme-Text { color: #fcfcfc; } </style>
  <g
     transform="translate(-22,33)"
     id="22-22-media-seek-forward"
     style="fill:#d3dae3;fill-opacity:1">
    <rect
       id="rect32"
       y="0"
       x="22"
       height="22"
       width="22"
       style="opacity:0.00100002;fill:#d3dae3;fill-opacity:1" />
  </g>
  <g
     id="g1">
    <path
       style="opacity:0.00100002;fill:#d3dae3;fill-opacity:1"
       d="M 0,0 H 22 V 21.999999 H 0 Z"
       id="path47" />
    <path
       d="M 5.343118,16.656844 C 6.854124,18.167884 8.863278,19 10.999998,19 c 2.13672,0 4.145876,-0.832116 5.65672,-2.343156 1.51115,-1.511039 2.34328,-3.520017 2.34328,-5.656844 0,-2.136827 -0.83213,-4.145799 -2.34328,-5.656849 -1.510844,-1.51091 -3.52,-2.34315 -5.65672,-2.34315 -2.13688,0 -4.145874,0.83224 -5.65688,2.34315 C 3.832238,6.854201 3.000001,8.863173 3.000001,11 c 0,2.136827 0.832237,4.145889 2.343117,5.656844 z M 6.256677,5.790231 c 1.473001,-1.24947 2.661001,-1.84014 4.743321,-1.82489 2.21064,0.0163 3.03064,0.43154 4.743321,1.82532 1.391632,1.3915 2.291336,3.241381 2.291336,5.209339 0,1.96808 -0.928273,4.060276 -2.291336,5.21 -1.529169,1.343717 -2.803763,1.809963 -4.743321,1.824657 C 9.032078,18.049647 7.714954,17.42168 6.256677,16.209852 4.865074,14.818272 3.965341,12.96808 3.965341,11 c 0,-1.967958 0.899733,-3.818279 2.291336,-5.209769 z"
       id="path2-36-912-3-36-3"
       style="fill:#d3dae3;fill-opacity:1;stroke-width:0.0249998"
       sodipodi:nodetypes="cscscscsccscscscsc" />
    <path
       d="M 6.063642,10.736864 C 6.063447,10.62809 6.106902,10.523729 6.184145,10.446889 L 9.462517,7.654176 C 9.792442,7.405744 10.69196,7.371304 10.692258,8.216143 v 2.606355 2.263072 c 0,0.316014 0.06997,0.923516 -0.21083,1.204167 v 0 c -0.281589,0.280351 -0.738154,0.280351 -1.01973,0 L 6.184145,11.026846 c -0.07736,-0.0768 -0.120697,-0.181208 -0.120503,-0.289982 z"
       id="path4-3-75-3-6"
       style="fill:#d3dae3;fill-opacity:1;stroke-width:0.20554"
       sodipodi:nodetypes="ccccccssccc" />
    <path
       d="m 10.363636,10.736864 c -1.97e-4,-0.108774 0.04326,-0.213135 0.120506,-0.289975 l 3.278367,-2.792713 c 0.329924,-0.248432 1.229445,-0.282872 1.229742,0.561967 v 2.606355 2.263072 c 0,0.316014 0.07,0.923516 -0.210831,1.204167 v 0 c -0.28159,0.280351 -0.73815,0.280351 -1.019732,0 l -3.277546,-3.262891 c -0.07737,-0.0768 -0.120703,-0.181208 -0.120506,-0.289982 z"
       id="path4-3-75-3-6-1"
       style="fill:#d3dae3;fill-opacity:1;stroke-width:0.20554"
       sodipodi:nodetypes="ccccccssccc" />
  </g>
</svg>
