<?xml version="1.0" encoding="UTF-8" standalone="no"?>
<svg
   viewBox="0 0 22 22"
   version="1.1"
   id="svg2"
   sodipodi:docname="media-mount.svg"
   inkscape:version="1.3.2 (091e20ef0f, 2023-11-25)"
   width="22"
   height="22"
   xmlns:inkscape="http://www.inkscape.org/namespaces/inkscape"
   xmlns:sodipodi="http://sodipodi.sourceforge.net/DTD/sodipodi-0.dtd"
   xmlns="http://www.w3.org/2000/svg"
   xmlns:svg="http://www.w3.org/2000/svg">
  <defs
     id="defs2" />
  <sodipodi:namedview
     id="namedview2"
     pagecolor="#ffffff"
     bordercolor="#999999"
     borderopacity="1"
     inkscape:showpageshadow="2"
     inkscape:pageopacity="0"
     inkscape:pagecheckerboard="0"
     inkscape:deskcolor="#d1d1d1"
     showgrid="true"
     inkscape:zoom="8.6590909"
     inkscape:cx="7.8530184"
     inkscape:cy="32.451444"
     inkscape:window-width="1920"
     inkscape:window-height="994"
     inkscape:window-x="0"
     inkscape:window-y="0"
     inkscape:window-maximized="1"
     inkscape:current-layer="svg2">
    <inkscape:grid
       id="grid1"
       units="px"
       originx="0"
       originy="0"
       spacingx="1"
       spacingy="1"
       empcolor="#0099e5"
       empopacity="0.30196078"
       color="#0099e5"
       opacity="0.14902"
       empspacing="5"
       dotted="false"
       gridanglex="30"
       gridanglez="30"
       visible="true" />
  </sodipodi:namedview>
  <style
     type="text/css"
     id="current-color-scheme">.ColorScheme-Text { color: #fcfcfc; } </style>
  <g
     id="22-22-media-eject"
     style="fill:#d6dbf1;fill-opacity:1"
     transform="translate(-96)">
    <path
       style="opacity:0.00100002;fill:#d6dbf1;fill-opacity:1"
       d="m 96,0 h 22 V 22 H 96 Z"
       id="path37" />
    <path
       d="M 112.74222,5.357803 C 111.22179,3.83732 109.20009,3 107.05,3 104.89992,3 102.87821,3.83732 101.35793,5.357803 99.837331,6.878287 99,8.899819 99,11.050001 c 0,2.150182 0.837331,4.171712 2.35793,5.692196 1.52028,1.520365 3.54199,2.357803 5.69207,2.357803 2.15023,0 4.17179,-0.837438 5.69222,-2.357803 1.52034,-1.520484 2.35778,-3.542014 2.35778,-5.692196 0,-2.150181 -0.83744,-4.171802 -2.35778,-5.692198 z m -0.91924,10.934528 c -1.48222,1.257281 -2.67763,1.851645 -4.77298,1.836296 -2.22446,-0.01638 -3.04958,-0.434238 -4.77297,-1.836728 -1.40032,-1.400198 -2.305656,-3.261636 -2.305656,-5.241897 0,-1.980376 0.934076,-4.085657 2.305656,-5.242564 1.53873,-1.352119 2.82129,-1.821279 4.77297,-1.836063 1.98021,-0.01506 3.30559,0.61681 4.77298,1.83621 1.40028,1.40028 2.30565,3.262041 2.30565,5.242417 0,1.980261 -0.90537,3.842136 -2.30565,5.242329 z"
       id="path2-36-912-3-3-35-3-75-2"
       style="fill:#d3dae3;fill-opacity:1;stroke-width:0.0251561"
       sodipodi:nodetypes="cscscscsccscscscsc" />
    <path
       d="m 103.74827,14 h 6.65587 c 1.69843,0.0062 1.69843,1.951429 0,1.957675 h -6.65587 c -1.69843,-0.0062 -1.69843,-1.951429 0,-1.957675 z m 6.65587,0.391527 z"
       id="path8-6-7-36-2-9"
       style="fill:#d3dae3;fill-opacity:1;stroke-width:0.223868"
       sodipodi:nodetypes="cccccccccc" />
    <path
       d="m 106.66169,12.999999 c -0.13986,2.53e-4 -0.27404,-0.05591 -0.37284,-0.155953 l -3.59062,-4.2425884 c -0.31942,-0.4269634 -0.3637,-1.5910475 0.72253,-1.5914317 h 3.35102 2.90967 c 0.4063,0 1.18738,-0.09059 1.54821,0.27284 v 0 c 0.36045,0.3644101 0.36045,0.9552432 0,1.3196533 l -4.19514,4.2415268 c -0.0988,0.100093 -0.23298,0.156206 -0.37283,0.155953 z"
       id="path4-3-75-3-7-3"
       style="fill:#d3dae3;fill-opacity:1;stroke-width:0.265128"
       sodipodi:nodetypes="ccccccssccc" />
  </g>
</svg>
