<?xml version="1.0" encoding="UTF-8" standalone="no"?>
<svg
   viewBox="0 0 22 21.999998"
   id="svg6"
   version="1.1"
   sodipodi:docname="media-seek-forward.svg"
   width="22"
   height="21.999998"
   inkscape:version="1.3.2 (091e20ef0f, 2023-11-25)"
   xmlns:inkscape="http://www.inkscape.org/namespaces/inkscape"
   xmlns:sodipodi="http://sodipodi.sourceforge.net/DTD/sodipodi-0.dtd"
   xmlns="http://www.w3.org/2000/svg"
   xmlns:svg="http://www.w3.org/2000/svg">
  <defs
     id="defs1" />
  <sodipodi:namedview
     id="namedview1"
     pagecolor="#ffffff"
     bordercolor="#999999"
     borderopacity="1"
     inkscape:showpageshadow="2"
     inkscape:pageopacity="0"
     inkscape:pagecheckerboard="0"
     inkscape:deskcolor="#d1d1d1"
     inkscape:zoom="12.245804"
     inkscape:cx="10.860863"
     inkscape:cy="24.089884"
     inkscape:window-width="1920"
     inkscape:window-height="994"
     inkscape:window-x="0"
     inkscape:window-y="0"
     inkscape:window-maximized="1"
     inkscape:current-layer="svg6"
     showgrid="true">
    <inkscape:grid
       id="grid2"
       units="px"
       originx="0"
       originy="0"
       spacingx="1"
       spacingy="1"
       empcolor="#0099e5"
       empopacity="0.30196078"
       color="#0099e5"
       opacity="0.14902"
       empspacing="5"
       dotted="false"
       gridanglex="30"
       gridanglez="30"
       visible="true" />
  </sodipodi:namedview>
  <style
     type="text/css"
     id="current-color-scheme">.ColorScheme-Text { color: #fcfcfc; } </style>
  <g
     transform="translate(-22,33)"
     id="22-22-media-seek-forward"
     style="fill:#d3dae3;fill-opacity:1">
    <rect
       id="rect32"
       y="0"
       x="22"
       height="22"
       width="22"
       style="opacity:0.00100002;fill:#d3dae3;fill-opacity:1" />
  </g>
  <path
     style="opacity:0.00100002;fill:#d3dae3;fill-opacity:1"
     d="M 0,0 H 22 V 21.999999 H 0 Z"
     id="path47" />
  <path
     d="M 16.65688,5.343156 C 15.145874,3.832116 13.13672,3 11,3 8.86328,3 6.854124,3.832116 5.34328,5.343156 3.83213,6.854195 3,8.863173 3,11 c 0,2.136827 0.83213,4.145799 2.34328,5.656849 1.510844,1.51091 3.52,2.34315 5.65672,2.34315 2.13688,0 4.145874,-0.83224 5.65688,-2.34315 1.51088,-1.51105 2.343117,-3.520022 2.343117,-5.656849 0,-2.136827 -0.832237,-4.145889 -2.343117,-5.656844 z M 15.743321,16.209769 C 14.27032,17.459239 13.08232,18.049909 11,18.034659 8.78936,18.018359 7.96936,17.603119 6.256679,16.209339 4.865047,14.817839 3.965343,12.967958 3.965343,11 3.965343,9.03192 4.893616,6.939724 6.256679,5.79 7.785848,4.446283 9.060442,3.980037 11,3.965343 12.96792,3.950353 14.285044,4.57832 15.743321,5.790148 17.134924,7.181728 18.034657,9.03192 18.034657,11 c 0,1.967958 -0.899733,3.818279 -2.291336,5.209769 z"
     id="path2-36-912-3-36-3"
     style="fill:#d3dae3;fill-opacity:1;stroke-width:0.0249998"
     sodipodi:nodetypes="cscscscsccscscscsc" />
  <path
     d="m 15.936356,11.263136 c 1.95e-4,0.108774 -0.04326,0.213135 -0.120503,0.289975 l -3.278372,2.792713 c -0.329925,0.248432 -1.229443,0.282872 -1.229741,-0.561967 V 11.177502 8.91443 c 0,-0.3160139 -0.06997,-0.9235156 0.21083,-1.2041674 v 0 c 0.281589,-0.2803501 0.738154,-0.2803501 1.01973,0 l 3.277553,3.2628914 c 0.07736,0.0768 0.120697,0.181208 0.120503,0.289982 z"
     id="path4-3-75-3-6"
     style="fill:#d3dae3;fill-opacity:1;stroke-width:0.20554"
     sodipodi:nodetypes="ccccccssccc" />
  <path
     d="m 11.636362,11.263136 c 1.97e-4,0.108774 -0.04326,0.213135 -0.120506,0.289975 L 8.2374895,14.345824 C 7.9075647,14.594256 7.0080437,14.628696 7.0077472,13.783857 V 11.177502 8.9144303 c 0,-0.316014 -0.070001,-0.9235159 0.2108308,-1.2041675 v 0 c 0.2815896,-0.2803503 0.7381497,-0.2803503 1.0197321,0 l 3.2775459,3.2628912 c 0.07737,0.0768 0.120703,0.181208 0.120506,0.289982 z"
     id="path4-3-75-3-6-1"
     style="fill:#d3dae3;fill-opacity:1;stroke-width:0.20554"
     sodipodi:nodetypes="ccccccssccc" />
</svg>
