<?xml version="1.0" encoding="UTF-8" standalone="no"?>
<svg
   viewBox="0 0 22 22"
   id="svg6"
   width="22"
   height="22"
   version="1.1"
   sodipodi:docname="media-skip-forward.svg"
   inkscape:version="1.3.2 (091e20ef0f, 2023-11-25)"
   xmlns:inkscape="http://www.inkscape.org/namespaces/inkscape"
   xmlns:sodipodi="http://sodipodi.sourceforge.net/DTD/sodipodi-0.dtd"
   xmlns="http://www.w3.org/2000/svg"
   xmlns:svg="http://www.w3.org/2000/svg">
  <defs
     id="defs1" />
  <sodipodi:namedview
     id="namedview1"
     pagecolor="#ffffff"
     bordercolor="#999999"
     borderopacity="1"
     inkscape:showpageshadow="2"
     inkscape:pageopacity="0"
     inkscape:pagecheckerboard="0"
     inkscape:deskcolor="#d1d1d1"
     inkscape:zoom="15.875"
     inkscape:cx="10.456693"
     inkscape:cy="15.370079"
     inkscape:window-width="1920"
     inkscape:window-height="994"
     inkscape:window-x="0"
     inkscape:window-y="0"
     inkscape:window-maximized="1"
     inkscape:current-layer="svg6"
     showgrid="true">
    <inkscape:grid
       id="grid1"
       units="px"
       originx="0"
       originy="0"
       spacingx="1"
       spacingy="1"
       empcolor="#0099e5"
       empopacity="0.30196078"
       color="#0099e5"
       opacity="0.14902"
       empspacing="5"
       dotted="false"
       gridanglex="30"
       gridanglez="30"
       visible="true" />
  </sodipodi:namedview>
  <style
     type="text/css"
     id="current-color-scheme">.ColorScheme-Text { color: #fcfcfc; } </style>
  <g
     id="g1">
    <path
       style="opacity:0.00100002;fill:#d6dbf1;fill-opacity:1"
       d="M 0,0 H 22 V 22 H 0 Z"
       id="path37" />
    <path
       d="M 5.357803,5.35778 C 3.83732,6.87821 3,8.89991 3,11.05 3,13.20008 3.83732,15.22179 5.357803,16.74207 6.878287,18.262669 8.899819,19.1 11.050001,19.1 c 2.150182,0 4.171712,-0.837331 5.692196,-2.35793 C 18.262562,15.22179 19.1,13.20008 19.1,11.05 19.1,8.89977 18.262562,6.87821 16.742197,5.35778 15.221713,3.83744 13.200183,3 11.050001,3 8.89982,3 6.878199,3.83744 5.357803,5.35778 Z m 10.934528,0.91924 c 1.257281,1.48222 1.851645,2.67763 1.836296,4.77298 -0.01638,2.22446 -0.434238,3.04958 -1.836728,4.77297 -1.400198,1.40032 -3.261636,2.305656 -5.241897,2.305656 -1.980376,0 -4.085657,-0.934076 -5.242564,-2.305656 C 4.455319,14.28424 3.986159,13.00168 3.971375,11.05 3.956315,9.06979 4.588185,7.74441 5.807585,6.27702 7.207865,4.87674 9.069626,3.97137 11.050002,3.97137 c 1.980261,0 3.842136,0.90537 5.242329,2.30565 z"
       id="path2-36-912-3-3-35-3-75-2"
       style="fill:#d3dae3;fill-opacity:1;stroke-width:0.0251561"
       sodipodi:nodetypes="cscscscsccscscscsc" />
    <path
       d="M 13.1,14.35173 V 7.69586 c 0.0063,-1.69843 1.993619,-1.69843 2,0 v 6.65587 c -0.0063,1.69843 -1.993619,1.69843 -2,0 z m 0.399992,-6.65587 z"
       id="path8-6-7-36-2-9"
       style="fill:#d3dae3;fill-opacity:1;stroke-width:0.226275"
       sodipodi:nodetypes="cccccccccc" />
    <path
       d="m 13.099999,11.038 c 2.53e-4,0.13986 -0.05591,0.2742 -0.155953,0.373 L 8.7014577,15.40177 C 8.2744943,15.72119 7.1104102,15.76547 7.110026,14.67924 V 11.32822 8.41855 c 0,-0.4063 -0.09059,-1.18738 0.27284,-1.54821 v 0 c 0.3644101,-0.36045 0.9552432,-0.36045 1.3196533,0 L 12.944046,10.665 c 0.100093,0.0988 0.156206,0.23315 0.155953,0.373 z"
       id="path4-3-75-3-7-3"
       style="fill:#d3dae3;fill-opacity:1;stroke-width:0.265128"
       sodipodi:nodetypes="ccccccssccc" />
  </g>
</svg>
