<?xml version="1.0" encoding="UTF-8" standalone="no"?>
<svg
   width="24"
   height="24"
   viewBox="0 0 24 24"
   version="1.1"
   id="svg2"
   sodipodi:docname="notification-disabled.svg"
   inkscape:version="1.3.2 (091e20ef0f, 2023-11-25)"
   xmlns:inkscape="http://www.inkscape.org/namespaces/inkscape"
   xmlns:sodipodi="http://sodipodi.sourceforge.net/DTD/sodipodi-0.dtd"
   xmlns="http://www.w3.org/2000/svg"
   xmlns:svg="http://www.w3.org/2000/svg">
  <defs
     id="defs2" />
  <sodipodi:namedview
     id="namedview2"
     pagecolor="#ffffff"
     bordercolor="#999999"
     borderopacity="1"
     inkscape:showpageshadow="2"
     inkscape:pageopacity="0"
     inkscape:pagecheckerboard="0"
     inkscape:deskcolor="#d1d1d1"
     showgrid="true"
     inkscape:zoom="11.22532"
     inkscape:cx="8.7302634"
     inkscape:cy="27.705224"
     inkscape:window-width="1920"
     inkscape:window-height="994"
     inkscape:window-x="0"
     inkscape:window-y="0"
     inkscape:window-maximized="1"
     inkscape:current-layer="g2">
    <inkscape:grid
       id="grid2"
       units="px"
       originx="0"
       originy="0"
       spacingx="1"
       spacingy="1"
       empcolor="#0099e5"
       empopacity="0.30196078"
       color="#0099e5"
       opacity="0.14902"
       empspacing="5"
       dotted="false"
       gridanglex="30"
       gridanglez="30"
       visible="true" />
  </sodipodi:namedview>
  <style
     type="text/css"
     id="current-color-scheme">.ColorScheme-Text{color:#232629;}.ColorScheme-ButtonFocus{color:#3daee9;}.ColorScheme-NegativeText { color: #da4453; } </style>
  <g
     id="g2"
     transform="translate(1.000036,32.000126)">
    <g
       id="g1">
      <path
         style="fill:none;stroke-width:1"
         inkscape:connector-curvature="0"
         d="M -6.2499998e-7,-30.999997 H 21.999999 V -8.9999964 H -6.2499998e-7 Z"
         id="path14" />
      <path
         id="Path_164-9"
         data-name="Path 164"
         d="m 18.195258,-17.299454 -1.529017,-1.019999 a 1.4990163,1.5000883 0 0 1 -0.669554,-1.250003 v -2.430334 a 4.9967212,5.0002944 0 0 0 -3.106939,-4.623271 1.9856968,1.9871169 0 0 0 -3.7795279,0 4.9967212,5.0002944 0 0 0 -3.1069472,4.623271 v 2.430334 a 1.4990163,1.5000883 0 0 1 -0.6675564,1.248001 l -1.5310064,1.022001 a 1.7988197,1.800106 0 0 0 0.9993596,3.300336 h 4.1972417 a 1.998689,2.0001182 0 0 0 3.9973776,0 h 4.197243 a 1.7988197,1.800106 0 0 0 0.999358,-3.300336 z m -0.99936,2.300004 H 4.804043 a 0.79947525,0.80004697 0 0 1 -0.4437164,-1.470002 l 1.530007,-1.019999 a 2.4983606,2.5001472 0 0 0 1.1122722,-2.080005 v -2.430334 a 3.9973778,4.0002364 0 0 1 7.9947542,0 v 2.430334 a 2.4983606,2.5001472 0 0 0 1.112274,2.080005 l 1.531005,1.020998 a 0.79947525,0.80004697 0 0 1 -0.444741,1.469003 z m -6.195934,2.000001 a 0.9993444,1.0000591 0 0 1 -0.999353,-1.000002 h 1.998669 a 0.9993444,1.0000591 0 0 1 -0.999352,1.000002 z m 0.499675,-11.500676 a 0.49967209,0.50002941 0 0 1 -0.499675,0.5 1.9986881,2.0001175 0 0 0 -1.9986658,2.000001 0.4996798,0.50003712 0 0 1 -0.9993596,0 2.9980328,3.0001767 0 0 1 2.9980254,-3.000002 0.49967209,0.50002941 0 0 1 0.499675,0.500001 z"
         style="fill:#c83771;fill-opacity:1;stroke-width:0.999673" />
    </g>
  </g>
</svg>
