<?xml version="1.0" encoding="UTF-8" standalone="no"?>
<svg
   viewBox="0 0 32 32"
   version="1.1"
   id="svg1"
   sodipodi:docname="system-log-out-rtl.svg"
   width="32"
   height="32"
   inkscape:version="1.3.2 (091e20ef0f, 2023-11-25)"
   xmlns:inkscape="http://www.inkscape.org/namespaces/inkscape"
   xmlns:sodipodi="http://sodipodi.sourceforge.net/DTD/sodipodi-0.dtd"
   xmlns:xlink="http://www.w3.org/1999/xlink"
   xmlns="http://www.w3.org/2000/svg"
   xmlns:svg="http://www.w3.org/2000/svg">
  <sodipodi:namedview
     id="namedview1"
     pagecolor="#ffffff"
     bordercolor="#999999"
     borderopacity="1"
     inkscape:showpageshadow="2"
     inkscape:pageopacity="0"
     inkscape:pagecheckerboard="0"
     inkscape:deskcolor="#d1d1d1"
     inkscape:zoom="8.6590909"
     inkscape:cx="16.052493"
     inkscape:cy="15.648294"
     inkscape:window-width="1920"
     inkscape:window-height="999"
     inkscape:window-x="0"
     inkscape:window-y="0"
     inkscape:window-maximized="1"
     inkscape:current-layer="svg1" />
  <defs
     id="defs3051">
    <style
       type="text/css"
       id="current-color-scheme">.ColorScheme-Text {color:#fcfcfc;}</style>
    <radialGradient
       gradientUnits="userSpaceOnUse"
       r="11"
       fy="12"
       fx="42"
       cy="12"
       cx="42"
       id="radialGradient894"
       xlink:href="#linearGradient4"
       inkscape:collect="always"
       gradientTransform="matrix(1.2272726,0,0,1.2272726,-1.1267034,-1.2272735)" />
    <linearGradient
       id="linearGradient4"
       inkscape:collect="always">
      <stop
         id="stop3"
         offset="0"
         style="stop-color:#008080;stop-opacity:1;" />
      <stop
         id="stop4"
         offset="1"
         style="stop-color:#008080;stop-opacity:0.01;" />
    </linearGradient>
  </defs>
  <g
     id="system-log-out"
     transform="matrix(-1.1851852,0,0,-1.1851852,75.755548,32)">
    <rect
       style="color:#000000;display:inline;overflow:visible;visibility:visible;opacity:0.01;fill:#000000;fill-opacity:0.00392157;stroke:none;stroke-width:5.62498;marker:none;enable-background:accumulate"
       id="rect4570-7"
       width="27"
       height="27"
       x="36.918743"
       y="0" />
    <path
       id="rect4747-6-8"
       style="color:#000000;display:inline;overflow:visible;visibility:visible;fill:url(#radialGradient894);fill-opacity:1;fill-rule:evenodd;stroke:none;stroke-width:11.0449;marker:none;enable-background:accumulate"
       d="m 40.600563,0 h 19.636354 c 2.45455,0 3.681826,1.2272713 3.681826,3.6818177 V 23.318174 C 63.918743,25.772724 62.691467,27 60.236917,27 H 51.261205 40.600563 c -2.454551,0 -3.68182,-1.227276 -3.68182,-3.681826 V 3.6818177 C 36.918743,1.2272713 38.146012,0 40.600563,0 Z m 14.964248,6.7682812 c -3.040597,-2.3346505 -7.27925,-2.3346505 -10.319848,0 -3.704764,2.8446378 -4.410153,8.1878518 -1.567394,11.8950558 2.842778,3.707189 8.182476,4.413033 11.887242,1.568415 l -1.407892,-1.839081 c -2.71312,2.083222 -6.566532,1.576784 -8.648405,-1.138159 -2.081869,-2.714921 -1.568827,-6.563924 1.144341,-8.647143 2.218969,-1.7038078 5.285083,-1.7107505 7.504064,-0.0069 L 55.564811,6.7683437 Z M 56.074546,9.94796 c -0.134423,0.08065 -0.202812,1.163054 -0.23543,2.395654 h -3.885397 v 2.312771 h 3.885397 c 0.03252,1.232601 0.101064,2.314933 0.23543,2.395642 0.354958,0.213128 5.915658,-3.125804 5.915658,-3.552043 0,-0.426257 -5.5607,-3.765147 -5.915658,-3.552024 z"
       inkscape:connector-curvature="0"
       sodipodi:nodetypes="ssssscsssscscccscccccccccssc" />
  </g>
</svg>
