<?xml version="1.0" encoding="UTF-8" standalone="no"?>
<svg
   viewBox="0 0 32 32"
   version="1.1"
   id="svg1"
   sodipodi:docname="system-shutdown-update.svg"
   width="32"
   height="32"
   inkscape:version="1.3.2 (091e20ef0f, 2023-11-25)"
   xmlns:inkscape="http://www.inkscape.org/namespaces/inkscape"
   xmlns:sodipodi="http://sodipodi.sourceforge.net/DTD/sodipodi-0.dtd"
   xmlns:xlink="http://www.w3.org/1999/xlink"
   xmlns="http://www.w3.org/2000/svg"
   xmlns:svg="http://www.w3.org/2000/svg">
  <sodipodi:namedview
     id="namedview1"
     pagecolor="#ffffff"
     bordercolor="#999999"
     borderopacity="1"
     inkscape:showpageshadow="2"
     inkscape:pageopacity="0"
     inkscape:pagecheckerboard="0"
     inkscape:deskcolor="#d1d1d1"
     inkscape:zoom="12.245804"
     inkscape:cx="16.413785"
     inkscape:cy="35.522372"
     inkscape:window-width="1920"
     inkscape:window-height="998"
     inkscape:window-x="0"
     inkscape:window-y="0"
     inkscape:window-maximized="1"
     inkscape:current-layer="svg1"
     showgrid="true">
    <inkscape:grid
       id="grid1"
       units="px"
       originx="8"
       originy="-56.000004"
       spacingx="1"
       spacingy="1"
       empcolor="#0099e5"
       empopacity="0.30196078"
       color="#0099e5"
       opacity="0.14902"
       empspacing="5"
       dotted="false"
       gridanglex="30"
       gridanglez="30"
       visible="true" />
  </sodipodi:namedview>
  <defs
     id="defs3051">
    <style
       type="text/css"
       id="current-color-scheme">.ColorScheme-Text {color:#fcfcfc;}</style>
    <radialGradient
       gradientUnits="userSpaceOnUse"
       r="11"
       fy="12"
       fx="12"
       cy="12"
       cx="12"
       id="radialGradient886"
       xlink:href="#linearGradient4"
       inkscape:collect="always"
       gradientTransform="matrix(1.4545457,0,0,1.4545457,-1.4545455,-1.4545457)" />
    <linearGradient
       id="linearGradient4"
       inkscape:collect="always">
      <stop
         id="stop3-9"
         offset="0"
         style="stop-color:#008080;stop-opacity:1;" />
      <stop
         id="stop4-1"
         offset="1"
         style="stop-color:#008080;stop-opacity:0.01;" />
    </linearGradient>
  </defs>
  <g
     id="system-shutdown">
    <rect
       style="color:#000000;display:inline;overflow:visible;visibility:visible;opacity:0.01;fill:#000000;fill-opacity:0.00392157;stroke:none;stroke-width:6.6667;marker:none;enable-background:accumulate"
       id="rect4570"
       width="32"
       height="32"
       x="0"
       y="0" />
    <path
       id="rect4747-1-3-0"
       style="color:#000000;display:inline;overflow:visible;visibility:visible;fill:url(#radialGradient886);fill-opacity:1;fill-rule:evenodd;stroke:none;stroke-width:13.0903;marker:none;enable-background:accumulate"
       d="m 14.628604,4.114307 h 2.742876 v 10.05715 H 14.628604 Z M 10.972175,7.318434 C 9.442568,8.2 8.168753,9.471575 7.2856324,10.998491 4.515122,15.788708 6.1735099,21.95094 10.972175,24.71658 15.770861,27.482216 21.943937,25.82676 24.714453,21.036511 27.484978,16.2463 25.826564,10.08409 21.027883,7.318434 L 19.661889,9.69241 c 3.513796,2.025096 4.703099,6.472922 2.674413,9.980534 -2.028694,3.50758 -6.484342,4.694767 -9.998122,2.669668 C 8.824387,20.317503 7.6351013,15.869689 9.663776,12.362098 10.306022,11.251643 11.225783,10.33351 12.33818,9.692393 Z M 4.3636371,0 H 27.636371 C 30.545466,0 32,1.4545466 32,4.3636371 V 27.636371 C 32,30.545466 30.545466,32 27.636371,32 H 4.3636371 C 1.4545466,32 0,30.545466 0,27.636371 V 4.3636371 C 0,1.4545466 1.4545466,0 4.3636371,0 Z"
       inkscape:connector-curvature="0" />
  </g>
  <ellipse
     style="fill:#008080;fill-opacity:1;fill-rule:evenodd;stroke:none;stroke-width:0.0180001;stroke-opacity:1"
     id="path32-7"
     cx="22.040003"
     cy="22"
     rx="4.0400033"
     ry="4" />
  <path
     d="m 22.982837,25.199991 c 0.130307,0 0.235636,-0.106192 0.235636,-0.237034 v -3.081483 h 1.413614 c 0.209014,0 0.315062,-0.255287 0.166597,-0.404631 l -2.592059,-2.607631 c -0.04409,-0.04436 -0.103916,-0.06921 -0.166592,-0.06921 -0.06274,0 -0.12231,0.02489 -0.166608,0.06942 l -2.592058,2.607647 c -0.147747,0.148388 -0.04409,0.404388 0.166594,0.404388 h 1.41409 v 3.081482 c 0,0.131082 0.105811,0.237033 0.235646,0.237033 z m -0.942804,-5.82803 z"
     id="path4-0"
     style="fill:#262626;fill-opacity:1;stroke-width:0.99998"
     sodipodi:nodetypes="sscsccsccscsssccccccc" />
</svg>
