<?xml version="1.0" encoding="UTF-8" standalone="no"?>
<svg
   width="22"
   height="22"
   version="1.1"
   id="svg1"
   sodipodi:docname="klipper-symbolic.svg"
   inkscape:version="1.3.2 (091e20ef0f, 2023-11-25)"
   xmlns:inkscape="http://www.inkscape.org/namespaces/inkscape"
   xmlns:sodipodi="http://sodipodi.sourceforge.net/DTD/sodipodi-0.dtd"
   xmlns="http://www.w3.org/2000/svg"
   xmlns:svg="http://www.w3.org/2000/svg">
  <defs
     id="defs1" />
  <sodipodi:namedview
     id="namedview1"
     pagecolor="#ffffff"
     bordercolor="#999999"
     borderopacity="1"
     inkscape:showpageshadow="2"
     inkscape:pageopacity="0"
     inkscape:pagecheckerboard="0"
     inkscape:deskcolor="#d1d1d1"
     inkscape:zoom="17.318182"
     inkscape:cx="10.740157"
     inkscape:cy="17.23622"
     inkscape:window-width="1920"
     inkscape:window-height="994"
     inkscape:window-x="0"
     inkscape:window-y="0"
     inkscape:window-maximized="1"
     inkscape:current-layer="svg1"
     showgrid="true">
    <inkscape:grid
       id="grid1"
       units="px"
       originx="0"
       originy="0"
       spacingx="1"
       spacingy="1"
       empcolor="#0099e5"
       empopacity="0.30196078"
       color="#0099e5"
       opacity="0.14901961"
       empspacing="5"
       dotted="false"
       gridanglex="30"
       gridanglez="30"
       visible="true" />
  </sodipodi:namedview>
  <style
     type="text/css"
     id="current-color-scheme">
      .ColorScheme-Text {
        color:#fcfcfc;
      }
      .ColorScheme-Background {
        color:#eff0f1;
      }
      .ColorScheme-Highlight {
        color:#3daee9;
      }
      .ColorScheme-ViewText {
        color:#31363b;
      }
      .ColorScheme-ViewBackground {
        color:#fcfcfc;
      }
      .ColorScheme-ViewHover {
        color:#93cee9;
      }
      .ColorScheme-ViewFocus{
        color:#3daee9;
      }
      .ColorScheme-ButtonText {
        color:#31363b;
      }
      .ColorScheme-ButtonBackground {
        color:#eff0f1;
      }
      .ColorScheme-ButtonHover {
        color:#93cee9;
      }
      .ColorScheme-ButtonFocus{
        color:#3daee9;
      }
      </style>
  <g
     id="22-22-klipper-1"
     style="fill:#d3dae3;fill-opacity:1">
    <rect
       style="opacity:0.00100002;fill:#d3dae3;fill-opacity:1"
       width="22"
       height="22"
       x="0"
       y="0"
       id="rect2" />
    <path
       d="m 6.9627076,5 h 1.321477 V 6 H 7 C 6,6 6,6 6,7 v 10 c 0,1 0,1 1,1 h 8 c 1,0 1,0 1,-1 V 7 C 16,6 16,6 15,6 H 13 V 5 h 2.666667 C 16.333333,5 17,5.5167223 17,6.1587832 V 17.715878 C 17,18.357939 16.333333,19 15.666667,19 H 6.3333332 C 5.6666666,19 5,18.357939 5,17.715878 V 6.1587832 C 5,5.5167223 5.6666666,5 6.3333332,5 Z M 14,15 H 8 v 0 z m 0,0 H 8 v 1 h 6 z m 0,1 H 8 v 0 z m 0,-3 H 8 v -1 h 6 z M 10.412,2.7133926 C 11,2.7132162 12,3.1468649 12,3.963659 V 8.5735913 C 12,10.51712 9,10.580605 9,8.5457213 V 2.9482453 C 9,0.3047971 13,0.4485345 13,3 V 3 H 12 V 3 C 12,1.6865259 10,1.639114 10,2.9482447 v 5.5974751 c 0,0.7412093 1,0.6790771 1,0.02788 V 4.0502746 C 11,3.8617445 10.412,3.7156984 10.412,3.697447 Z"
       fill-rule="evenodd"
       id="path2216-3"
       sodipodi:nodetypes="cccccccccccccsssssssccsccsccsccccccccccccsscccccccccscc"
       style="fill:#d3dae3;fill-opacity:1;stroke-width:0.0423143" />
  </g>
</svg>
