<?xml version="1.0" encoding="UTF-8" standalone="no"?>
<svg
   viewBox="0 0 16 16"
   version="1.1"
   id="svg9"
   sodipodi:docname="konversation.svg"
   inkscape:version="1.3.2 (091e20ef0f, 2023-11-25)"
   xmlns:inkscape="http://www.inkscape.org/namespaces/inkscape"
   xmlns:sodipodi="http://sodipodi.sourceforge.net/DTD/sodipodi-0.dtd"
   xmlns:xlink="http://www.w3.org/1999/xlink"
   xmlns="http://www.w3.org/2000/svg"
   xmlns:svg="http://www.w3.org/2000/svg">
  <defs
     id="defs9" />
  <sodipodi:namedview
     id="namedview9"
     pagecolor="#ffffff"
     bordercolor="#999999"
     borderopacity="1"
     inkscape:showpageshadow="2"
     inkscape:pageopacity="0"
     inkscape:pagecheckerboard="0"
     inkscape:deskcolor="#d1d1d1"
     showgrid="true"
     inkscape:zoom="33.896931"
     inkscape:cx="7.699812"
     inkscape:cy="7.7145626"
     inkscape:window-width="1920"
     inkscape:window-height="999"
     inkscape:window-x="0"
     inkscape:window-y="0"
     inkscape:window-maximized="1"
     inkscape:current-layer="svg9">
    <inkscape:grid
       id="grid9"
       units="px"
       originx="0"
       originy="0"
       spacingx="1"
       spacingy="1"
       empcolor="#0099e5"
       empopacity="0.30196078"
       color="#0099e5"
       opacity="0.14901961"
       empspacing="5"
       dotted="false"
       gridanglex="30"
       gridanglez="30"
       visible="true" />
  </sodipodi:namedview>
  <linearGradient
     id="a"
     x2="0"
     y1="34"
     y2="4"
     gradientUnits="userSpaceOnUse">
    <stop
       stop-color="#7cbaf8"
       offset="0"
       id="stop1" />
    <stop
       stop-color="#f4fcff"
       offset="1"
       id="stop2" />
  </linearGradient>
  <linearGradient
     id="b"
     x1="405.57001"
     x2="427.57001"
     y1="509.79999"
     y2="533.79999"
     gradientUnits="userSpaceOnUse">
    <stop
       stop-opacity=".286"
       offset="0"
       id="stop3" />
    <stop
       stop-opacity="0"
       offset="1"
       id="stop4" />
  </linearGradient>
  <linearGradient
     id="c"
     x1="412.57001"
     x2="425.57001"
     y1="514.79999"
     y2="527.79999"
     gradientUnits="userSpaceOnUse"
     xlink:href="#b" />
  <linearGradient
     id="d"
     x2="0"
     y1="44"
     y2="4"
     gradientTransform="matrix(-1 0 0 1 432.57 499.8)"
     gradientUnits="userSpaceOnUse">
    <stop
       stop-color="#2f74c8"
       offset="0"
       id="stop5" />
    <stop
       stop-color="#4699d7"
       offset="1"
       id="stop6" />
  </linearGradient>
  <linearGradient
     id="e"
     x1="405.57001"
     x2="427.57001"
     y1="509.79999"
     y2="533.79999"
     gradientUnits="userSpaceOnUse"
     xlink:href="#b" />
  <g
     transform="matrix(.4 0 0 .4 -155.428 -201.52)"
     fill-rule="evenodd"
     id="g9">
    <path
       d="m 423.57,503.8 c 2.5,0 5,2.5 5,4.94145 V 528.8 c 0,2.5 -2.5,5 -5.26234,5 H 408.57 l -10,10 v -10 h -4.83729 c -3.07988,-0.6469 -5.16271,-2.5 -5.16271,-5 v -20 c 0,-2.72635 2.5,-5 5.0152,-5 z"
       fill="url(#d)"
       id="path6"
       sodipodi:nodetypes="cccccccccccc" />
    <path
       d="m403.57 536.3-7.5-7.5v-2.5l-2.5-2.5v-10h2.5l2.5 2.5v-2.5l20-6.25 10 10v16.25h-24.98896z"
       fill="url(#e)"
       opacity=".2"
       id="path7" />
    <path
       d="m421.07 523.8 7.5 7.5v-12.5l-5-5h-2.5z"
       fill="url(#c)"
       opacity=".2"
       id="path8" />
    <path
       transform="translate(384.57 499.8)"
       d="m34 7.75-20 6.25v10l20 6.25zm-25 6.25v10h2.5v-10zm27.5 0v10h2.5v-10zm-25 10v5h2.5v-5z"
       fill="url(#a)"
       id="path9" />
  </g>
</svg>
