<?xml version="1.0" encoding="UTF-8" standalone="no"?>
<!-- Created with Inkscape (http://www.inkscape.org/) -->

<svg
   width="32"
   height="32"
   viewBox="0 0 8.4666667 8.4666667"
   version="1.1"
   id="svg5"
   inkscape:version="1.2.2 (b0a8486541, 2022-12-01)"
   sodipodi:docname="libreoffice-math.svg"
   xmlns:inkscape="http://www.inkscape.org/namespaces/inkscape"
   xmlns:sodipodi="http://sodipodi.sourceforge.net/DTD/sodipodi-0.dtd"
   xmlns="http://www.w3.org/2000/svg"
   xmlns:svg="http://www.w3.org/2000/svg">
  <sodipodi:namedview
     id="namedview7"
     pagecolor="#ffffff"
     bordercolor="#9c9c9c"
     borderopacity="0.24705882"
     inkscape:showpageshadow="false"
     inkscape:pageopacity="0.0"
     inkscape:pagecheckerboard="0"
     inkscape:deskcolor="#5e5e5e"
     inkscape:document-units="px"
     showgrid="true"
     inkscape:zoom="5.1754899"
     inkscape:cx="90.619441"
     inkscape:cy="49.850353"
     inkscape:window-width="2560"
     inkscape:window-height="1363"
     inkscape:window-x="0"
     inkscape:window-y="0"
     inkscape:window-maximized="1"
     inkscape:current-layer="layer1">
    <inkscape:grid
       type="xygrid"
       id="grid132"
       originx="0"
       originy="0" />
  </sodipodi:namedview>
  <defs
     id="defs2" />
  <g
     inkscape:label="Capa 1"
     inkscape:groupmode="layer"
     id="layer1">
    <g
       id="g446"
       transform="translate(-5.2916846)">
      <path
         id="path2011"
         style="color:#000000;fill:#b22d4e;fill-opacity:1;stroke-width:0.264583;stroke-linecap:round;stroke-linejoin:round;-inkscape-stroke:none"
         d="m 6.6145833,0.26458391 c -0.2885811,0 -0.5291666,0.24058562 -0.5291666,0.52916666 V 7.6729171 c 0,0.2885811 0.2405855,0.5291667 0.5291666,0.5291667 h 5.8208337 c 0.288581,0 0.529166,-0.2405856 0.529166,-0.5291667 V 3.7041672 c -1.3e-5,-0.070168 -0.0279,-0.1374563 -0.07751,-0.1870684 L 9.7120686,0.34209889 C 9.6624563,0.29247893 9.5951672,0.26459714 9.525,0.26458391 Z m 3.9687497,0 c -0.235647,9.26e-5 -0.353638,0.28496683 -0.187068,0.45165168 l 2.116666,2.11666661 c 0.166686,0.1665711 0.451559,0.04858 0.451652,-0.1870683 V 0.79375057 c 0,0 0.0036,-0.1213776 -0.06098,-0.25063185 C 12.838973,0.41386712 12.6559,0.26458391 12.435415,0.26458391 Z"
         sodipodi:nodetypes="ssssssccccscccccssc" />
      <path
         id="path2015"
         style="color:#000000;fill:#e18499;fill-opacity:1;stroke-width:0.529167;stroke-linecap:round;stroke-linejoin:round;-inkscape-stroke:none"
         d="M 6.6145833,0.52916724 C 6.4680051,0.52916724 6.35,0.6471714 6.35,0.79375057 V 7.6729171 c 0,0.1465792 0.1180051,0.2645834 0.2645833,0.2645834 H 12.435417 C 12.581995,7.9375005 12.7,7.8194963 12.7,7.6729171 V 3.7041672 L 9.525,0.52916724 Z m 3.9687497,0 L 12.7,2.6458339 V 0.79375057 c 0,0 0,-0.26458333 -0.264583,-0.26458333 z" />
      <g
         id="g2241"
         transform="matrix(0.26458333,0,0,0.26458333,10.054167,-76.371975)"
         style="fill:#f7e0e5;fill-opacity:1">
        <path
           id="path839-6"
           d="m -7,300.64999 v 1 1 h -1 -1 v 1 1 h 1 1 v 1 1 h 1 1 v -1 -1 h 1 1 v -1 -1 h -1 -1 v -1 -1 h -1 z m 9,1 c -1.108,0 -2,0.892 -2,2 0,1.108 0.892,2 2,2 1.108,0 2,-0.892 2,-2 0,-1.108 -0.892,-2 -2,-2 z m -3,6 v 1 1 h 1 4 1 v -1 -1 H 4 0 Z m -8,2 v 1 1 h 1 4 1 v -1 -1 h -1 -4 z m 8,1 v 1 1 h 1 4 1 v -1 -1 H 4 0 Z"
           style="opacity:1;fill:#f7e0e5;fill-opacity:1;stroke:none;stroke-width:2;stroke-linecap:round;stroke-linejoin:round;stroke-miterlimit:4;stroke-dasharray:none;stroke-opacity:1"
           inkscape:connector-curvature="0" />
      </g>
    </g>
  </g>
</svg>
