<?xml version="1.0" encoding="UTF-8" standalone="no"?>
<svg
   width="64"
   height="64"
   version="1.1"
   id="svg10"
   sodipodi:docname="dialog-password.svg"
   inkscape:version="1.3.2 (091e20ef0f, 2023-11-25)"
   xmlns:inkscape="http://www.inkscape.org/namespaces/inkscape"
   xmlns:sodipodi="http://sodipodi.sourceforge.net/DTD/sodipodi-0.dtd"
   xmlns="http://www.w3.org/2000/svg"
   xmlns:svg="http://www.w3.org/2000/svg">
  <sodipodi:namedview
     id="namedview1"
     pagecolor="#ffffff"
     bordercolor="#999999"
     borderopacity="1"
     inkscape:showpageshadow="2"
     inkscape:pageopacity="0"
     inkscape:pagecheckerboard="0"
     inkscape:deskcolor="#d1d1d1"
     inkscape:zoom="5.9921875"
     inkscape:cx="27.535854"
     inkscape:cy="33.126467"
     inkscape:window-width="1920"
     inkscape:window-height="999"
     inkscape:window-x="0"
     inkscape:window-y="0"
     inkscape:window-maximized="1"
     inkscape:current-layer="svg10" />
  <defs
     id="defs14">
    <style
       id="current-color-scheme"
       type="text/css">.ColorScheme-Background { color:#31363b; }.ColorScheme-Text { color:#fcfcfc; }.ColorScheme-Highlight {color:#3daee9;}</style>
  </defs>
  <g
     id="g2"
     transform="matrix(2.0710929,0,0,-2.0714286,-1.1359699,65.142858)">
    <path
       d="M 16,2 C 7.2072549,2 2,9.6239637 1.997,16 1.994,22.376036 7,30 16,30 24.794688,30 30.001536,22.320699 30.001536,16 30.001536,9.6793012 25,2 16,2 Z"
       id="path9"
       style="fill:#434c5e;fill-opacity:1" />
    <path
       d="m 15.999268,23.331457 c -2.089243,1e-6 -3.782909,-1.69339 -3.782908,-3.782294 0,-1.567931 0.939537,-2.904801 2.297255,-3.479709 L 12.21636,8.2022793 h 7.565816 l -2.297257,7.8671747 c 1.397438,0.590678 2.303283,1.962783 2.297257,3.479709 0,2.088904 -1.693666,3.782295 -3.782908,3.782294 z"
       class="ColorScheme-Text"
       fill="currentColor"
       id="path8" />
  </g>
  <path
     id="path13"
     class="ColorScheme-Text"
     d="M 32.001516,3 C 15.985259,3 3.0015165,15.983742 3.0015165,32 c 0,16.016258 12.9837425,29 28.9999995,29 16.016259,0 29,-12.983742 29,-29 0,-16.016258 -12.983741,-29 -29,-29 z M 32.3292,7.055084 c 14.681571,0 24.617233,10.263347 24.617233,24.944916 0,14.681571 -10.263347,25.272599 -24.944916,25.272599 -14.681569,0 -24.6172325,-10.263345 -24.6172325,-24.944914 0,-14.681571 10.2633465,-25.2726 24.9449155,-25.272601 z"
     style="color:#31363b;fill:#00b2b2;fill-opacity:1;stroke:none;stroke-width:2.41667"
     inkscape:connector-curvature="0"
     sodipodi:nodetypes="ssssssssss" />
</svg>
