<?xml version="1.0" encoding="UTF-8" standalone="no"?>
<svg
   viewBox="0 0 32 32"
   version="1.1"
   id="svg12"
   sodipodi:docname="folder-projects.svg"
   inkscape:version="1.3.2 (091e20ef0f, 2023-11-25)"
   xmlns:inkscape="http://www.inkscape.org/namespaces/inkscape"
   xmlns:sodipodi="http://sodipodi.sourceforge.net/DTD/sodipodi-0.dtd"
   xmlns:xlink="http://www.w3.org/1999/xlink"
   xmlns="http://www.w3.org/2000/svg"
   xmlns:svg="http://www.w3.org/2000/svg"
   xmlns:rdf="http://www.w3.org/1999/02/22-rdf-syntax-ns#"
   xmlns:cc="http://creativecommons.org/ns#"
   xmlns:dc="http://purl.org/dc/elements/1.1/">
  <metadata
     id="metadata16">
    <rdf:RDF>
      <cc:Work
         rdf:about="">
        <dc:format>image/svg+xml</dc:format>
        <dc:type
           rdf:resource="http://purl.org/dc/dcmitype/StillImage" />
      </cc:Work>
    </rdf:RDF>
  </metadata>
  <sodipodi:namedview
     pagecolor="#ffffff"
     bordercolor="#666666"
     borderopacity="1"
     objecttolerance="10"
     gridtolerance="10"
     guidetolerance="10"
     inkscape:pageopacity="0"
     inkscape:pageshadow="2"
     inkscape:window-width="1920"
     inkscape:window-height="996"
     id="namedview14"
     showgrid="false"
     inkscape:zoom="7.375"
     inkscape:cx="16"
     inkscape:cy="26.847458"
     inkscape:window-x="0"
     inkscape:window-y="0"
     inkscape:window-maximized="1"
     inkscape:current-layer="svg12"
     inkscape:showpageshadow="2"
     inkscape:pagecheckerboard="0"
     inkscape:deskcolor="#d1d1d1" />
  <defs
     id="defs3051">
    <linearGradient
       inkscape:collect="always"
       id="linearGradient4538">
      <stop
         style="stop-color:#00a489;stop-opacity:1"
         offset="0"
         id="stop4534" />
      <stop
         style="stop-color:#006453;stop-opacity:1"
         offset="1"
         id="stop4536" />
    </linearGradient>
    <linearGradient
       inkscape:collect="always"
       id="linearGradient4530">
      <stop
         style="stop-color:#004c5a;stop-opacity:1"
         offset="0"
         id="stop4526" />
      <stop
         style="stop-color:#00a5be;stop-opacity:1"
         offset="1"
         id="stop4528" />
    </linearGradient>
    <style
       type="text/css"
       id="current-color-scheme">
      .ColorScheme-Text {
        color:#31363b;
      }
      .ColorScheme-Background {
        color:#eff0f1;
      }
      .ColorScheme-Highlight {
        color:#3daee9;
      }
      .ColorScheme-ViewText {
        color:#31363b;
      }
      .ColorScheme-ViewBackground {
        color:#fcfcfc;
      }
      .ColorScheme-ViewHover {
        color:#93cee9;
      }
      .ColorScheme-ViewFocus{
        color:#3daee9;
      }
      .ColorScheme-ButtonText {
        color:#31363b;
      }
      .ColorScheme-ButtonBackground {
        color:#eff0f1;
      }
      .ColorScheme-ButtonHover {
        color:#93cee9;
      }
      .ColorScheme-ButtonFocus{
        color:#3daee9;
      }
      </style>
    <linearGradient
       inkscape:collect="always"
       xlink:href="#linearGradient4530"
       id="linearGradient4532"
       x1="12"
       y1="11"
       x2="23.813559"
       y2="34.711864"
       gradientUnits="userSpaceOnUse" />
    <linearGradient
       inkscape:collect="always"
       xlink:href="#linearGradient4538"
       id="linearGradient4540"
       x1="2"
       y1="6.5"
       x2="30"
       y2="6.5"
       gradientUnits="userSpaceOnUse" />
  </defs>
  <path
     style="fill:url(#linearGradient4532);fill-opacity:1;stroke:none"
     d="M 2 3 L 2 10 L 1 10 L 1 29 L 12 29 L 13 29 L 31 29 L 31 8 L 30 8 L 30 5 L 16 5 L 14 3 L 2 3 z "
     class="ColorScheme-Highlight"
     id="path4" />
  <path
     style="fill-opacity:1;fill-rule:evenodd;fill:url(#linearGradient4540)"
     d="m 2,3 0,7 9,0 L 13,8 30,8 30,5 16,5 14,3 2,3 Z"
     id="path6" />
  <path
     style="fill:#ffffff;fill-opacity:0.2;fill-rule:evenodd"
     d="M 14 3 L 15 6 L 30 6 L 30 5 L 16 5 L 14 3 z M 13 8 L 11 10 L 1 10 L 1 11 L 12 11 L 13 8 z "
     id="path8" />
  <path
     style="fill-opacity:0.2;fill-rule:evenodd"
     d="M 13 8 L 11 9 L 2 9 L 2 10 L 11 10 L 13 8 z M 1 28 L 1 29 L 31 29 L 31 28 L 1 28 z "
     class="ColorScheme-Text"
     id="path10" />
  <path
     d="m 19.399067,19.554812 c -0.06823,-0.213771 -0.172619,-0.414306 -0.312828,-0.601604 -0.140478,-0.187091 -0.314902,-0.353265 -0.523449,-0.498454 -0.208668,-0.145056 -0.453274,-0.25961 -0.733966,-0.343756 -0.112497,-0.03039 -0.310373,-0.07826 -0.571012,-0.143244 -0.186289,-0.04628 -0.360933,-0.09376 -0.557805,-0.142118 v -2.359894 c 0.196864,0.05354 0.333637,0.138423 0.479631,0.232819 0.312344,0.201782 0.508185,0.546979 0.56556,1.015733 h 1.513148 c -0.0142,-0.401786 -0.101715,-0.731253 -0.262403,-1.02723 C 18.819405,15.36244 18.580832,15.083855 18.27999,14.862156 17.979215,14.640681 17.618826,14.471756 17.221763,14.36092 17.049308,14.31287 16.8969,14.272441 16.700037,14.245222 V 13.5 h -1.399973 v 0.740331 c -0.15314,0.02329 -0.331354,0.05458 -0.49056,0.09487 -0.377166,0.0956 -0.70847,0.242592 -1.005157,0.441164 -0.296865,0.198761 -0.532704,0.448928 -0.713206,0.750603 -0.180544,0.301847 -0.269307,0.658929 -0.269307,1.071428 0,0.213945 0.0307,0.423946 0.09085,0.630243 0.06015,0.206281 0.162769,0.401053 0.307176,0.584401 0.144432,0.183357 0.338937,0.349515 0.58376,0.498484 0.244622,0.148941 0.540407,0.269286 0.909451,0.360964 0.203142,0.05231 0.411899,0.101208 0.586896,0.146775 v 2.669328 C 15.059384,21.423432 14.821196,21.32344 14.628932,21.187713 14.42835,21.046486 14.277496,20.876265 14.165241,20.65459 14.06077,20.448585 14.010454,20.196421 14.003209,19.928565 H 12.50008 c 0.01501,0.468746 0.114844,0.881561 0.299072,1.235953 0.19246,0.370638 0.449152,0.66876 0.77006,0.905404 0.320739,0.2369 0.68672,0.409736 1.119947,0.524358 0.194294,0.0514 0.413988,0.08838 0.610863,0.116743 v 0.788976 h 1.399977 v -0.770977 c 0.218748,-0.0239 0.414679,-0.06004 0.624023,-0.108912 0.409069,-0.09537 0.779713,-0.246335 1.100638,-0.45259 0.320725,-0.206255 0.582317,-0.471609 0.778969,-0.796447 0.196428,-0.324582 0.29629,-0.716183 0.29629,-1.174538 2.6e-5,-0.213797 -0.03283,-0.427764 -0.100886,-0.641716 z m -4.099003,-2.088326 c -0.262501,-0.08355 -0.523068,-0.202862 -0.701093,-0.358214 -0.188576,-0.164163 -0.277233,-0.391387 -0.277233,-0.68181 0,-0.206282 0.05286,-0.37813 0.153215,-0.51567 0.100216,-0.137512 0.216827,-0.246384 0.36924,-0.326585 0.135196,-0.07118 0.302745,-0.124221 0.455869,-0.159327 z m 2.600922,3.343125 c -0.06428,0.148957 -0.168401,0.280709 -0.312869,0.395341 -0.144416,0.114578 -0.344388,0.20821 -0.576984,0.280729 -0.09844,0.03075 -0.17989,0.05454 -0.311126,0.07223 v -2.390842 c 0.218744,0.05855 0.397681,0.119015 0.575876,0.181487 0.176343,0.06124 0.344481,0.166131 0.492983,0.31508 0.148428,0.148999 0.225503,0.380135 0.225503,0.693303 3.1e-5,0.152886 -0.02927,0.303683 -0.09338,0.452659 z"
     id="path25907-1-5-7"
     style="fill:#d3ecf3;fill-opacity:1;stroke-width:0.044643" />
</svg>
